<?xml version="1.0" encoding="utf-8"?>
<!-- Generator: Adobe Illustrator 27.5.0, SVG Export Plug-In . SVG Version: 6.00 Build 0)  -->
<svg version="1.1" xmlns="http://www.w3.org/2000/svg" xmlns:xlink="http://www.w3.org/1999/xlink" x="0px" y="0px"
	 viewBox="0 0 750 500" style="enable-background:new 0 0 750 500;" xml:space="preserve">
<g id="BACKGROUND">
	<g>
		<g>
			<rect style="fill:#8088F9;" width="750" height="500"/>
		</g>
	</g>
</g>
<g id="OBJECTS">
	<g>
		<g>
			<g>
				<g>
					<path style="fill:#754A88;" d="M475.058,65.717v5.692c0,0.638,0.517,1.453,1.154,1.821l1.387,0.801
						c0.472,0.272,0.87,0.833,0.976,1.355c0.527,2.57,1.414,5.208,2.606,7.815c0.249,0.545,0.202,1.033-0.131,1.174l-0.975,0.412
						c-0.451,0.191-0.451,0.921,0,1.632l4.024,6.349c0.451,0.711,1.182,1.133,1.632,0.942l0.976-0.413
						c0.333-0.141,0.849,0.109,1.249,0.59c1.918,2.299,4.045,4.413,6.31,6.246c0.46,0.372,0.791,0.961,0.791,1.433v1.391
						c0,0.637,0.517,1.452,1.154,1.82l5.692,3.286c0.637,0.368,1.154,0.15,1.154-0.488v-1.391c0-0.472,0.332-0.678,0.791-0.519
						c2.265,0.782,4.391,1.123,6.309,1.039c0.021-0.001,0.044,0.01,0.066,0.011c-0.059,0.593,0.253,1.624,0.253,1.624l1.675,3.399
						l5.889-3.399c0.451-0.191,0.451-0.922,0-1.633l-0.975-1.538c-0.334-0.526-0.381-1.069-0.132-1.326
						c1.193-1.23,2.079-2.844,2.606-4.805c0.107-0.398,0.504-0.5,0.976-0.228l1.389,0.802c0.638,0.368,1.154,0.15,1.154-0.488V93.43
						c0-0.637-0.517-1.453-1.154-1.821l-1.388-0.801c-0.472-0.272-0.87-0.834-0.976-1.355c-0.526-2.569-1.413-5.207-2.606-7.814
						c-0.159-0.348-0.183-0.661-0.104-0.887l1.21-0.699c0.451-0.191,0.451-0.921,0-1.632l-4.025-6.348
						c-0.451-0.711-1.182-1.133-1.632-0.943l-0.973,0.411c-0.334,0.141-0.849-0.11-1.25-0.59c-1.919-2.301-4.046-4.417-6.312-6.252
						c-0.459-0.372-0.791-0.961-0.791-1.433v-1.383c0-0.637-0.517-1.452-1.154-1.821l-5.692-3.286
						c-0.637-0.368-1.154-0.15-1.154,0.488v1.383c0,0.472-0.332,0.678-0.791,0.52c-2.266-0.782-4.394-1.122-6.313-1.037
						c-0.4,0.018-0.916-0.327-1.25-0.853l-0.972-1.533c-0.451-0.711-1.181-1.133-1.632-0.943l-4.024,1.701
						c-0.451,0.191-0.451,0.921,0,1.632l0.974,1.535c0.333,0.526,0.381,1.069,0.132,1.325c-1.193,1.231-2.08,2.846-2.606,4.807
						c-0.107,0.398-0.505,0.5-0.977,0.227l-1.386-0.8C475.574,64.861,475.058,65.079,475.058,65.717z M499.057,70.188
						c6.758,3.901,12.228,12.541,12.228,19.287c0,7.202-6.214,9.367-13.577,4.327c-5.606-3.837-10.148-10.972-10.794-16.946
						C486.061,68.97,491.821,66.01,499.057,70.188z"/>
				</g>
				<g>
					<path style="fill:#B8DFFF;" d="M475.063,65.715v5.691c0,0.637,0.509,1.451,1.146,1.821l1.388,0.802
						c0.471,0.267,0.866,0.84,0.981,1.35c0.522,2.572,1.413,5.22,2.61,7.818c0.242,0.548,0.191,1.031-0.14,1.172l-0.968,0.42
						c-0.458,0.191-0.458,0.917,0,1.63l4.023,6.354c0.446,0.7,1.184,1.133,1.63,0.942l0.98-0.42c0.331-0.14,0.84,0.115,1.248,0.586
						c1.91,2.305,4.036,4.418,6.303,6.252c0.458,0.369,0.789,0.968,0.789,1.439v1.388c0,0.637,0.522,1.451,1.159,1.821l5.691,3.285
						c0.637,0.369,1.159,0.153,1.159-0.484v-1.401c0-0.471,0.331-0.675,0.79-0.509c2.266,0.777,4.393,1.121,6.303,1.031
						c0.025,0,0.051,0.013,0.076,0.013c-0.064,0.599,0.242,1.63,0.242,1.63l1.681,3.387l5.882-3.387c0.458-0.191,0.458-0.93,0-1.643
						l-0.968-1.541c-0.331-0.522-0.382-1.057-0.14-1.324c1.197-1.222,2.088-2.839,2.61-4.8c0.115-0.395,0.51-0.497,0.981-0.229
						l1.388,0.802c0.637,0.369,1.159,0.153,1.159-0.484v-5.692c0-0.637-0.522-1.451-1.159-1.821l-1.388-0.802
						c-0.471-0.28-0.866-0.84-0.981-1.363c-0.522-2.559-1.413-5.208-2.597-7.805c-0.165-0.356-0.191-0.662-0.115-0.891l1.21-0.7
						c0.458-0.191,0.458-0.917,0-1.63l-4.023-6.354c-0.446-0.713-1.171-1.133-1.63-0.942l-0.968,0.42
						c-0.331,0.14-0.853-0.115-1.248-0.598c-1.923-2.292-4.049-4.418-6.315-6.252c-0.458-0.369-0.79-0.955-0.79-1.426v-1.388
						c0-0.637-0.522-1.451-1.159-1.821l-5.691-3.285c-0.318-0.178-0.611-0.216-0.815-0.14c-0.217,0.089-0.344,0.306-0.344,0.624
						v1.388c0,0.471-0.331,0.675-0.789,0.522c-0.739-0.255-1.465-0.471-2.165-0.624c-1.464-0.344-2.852-0.471-4.151-0.42
						c-0.395,0.025-0.917-0.318-1.248-0.853l-0.968-1.528c-0.446-0.713-1.184-1.133-1.63-0.942l-4.023,1.694
						c-0.458,0.191-0.458,0.93,0,1.643l0.968,1.528c0.331,0.522,0.382,1.069,0.127,1.324c-1.184,1.235-2.075,2.852-2.597,4.813
						c-0.115,0.395-0.509,0.497-0.981,0.229l-1.388-0.802C475.572,64.862,475.063,65.079,475.063,65.715z M499.051,70.184
						c6.761,3.909,12.236,12.542,12.236,19.29c0,7.207-6.214,9.371-13.573,4.329c-5.615-3.832-10.161-10.975-10.797-16.947
						C486.064,68.975,491.819,66.008,499.051,70.184z"/>
				</g>
				<g>
					<path style="fill:#B8DFFF;" d="M469.628,68.464l5.748-3.356l0.161,3.356c0,0-2.726,2.464-3.034,2.517
						c-0.308,0.053-1.449,0-1.449,0L469.628,68.464z"/>
				</g>
				<g>
					<polygon style="fill:#B8DFFF;" points="502.785,108.155 496.91,111.545 496.651,108.357 499.718,107.932 					"/>
				</g>
				<g>
					<path style="fill:#FFFFFF;" d="M517.17,102.521v-5.692c0-0.637-0.517-1.452-1.154-1.821l-1.388-0.801
						c-0.472-0.272-0.87-0.834-0.976-1.355c-0.526-2.569-1.413-5.207-2.605-7.814c-0.249-0.544-0.202-1.033,0.132-1.174l0.975-0.412
						c0.451-0.191,0.451-0.921,0-1.632l-4.024-6.348c-0.451-0.711-1.182-1.133-1.632-0.943l-0.974,0.411
						c-0.333,0.141-0.849-0.11-1.25-0.59c-1.919-2.301-4.046-4.417-6.312-6.252c-0.459-0.372-0.791-0.961-0.791-1.433v-1.383
						c0-0.637-0.517-1.453-1.154-1.821l-5.692-3.286c-0.637-0.368-1.154-0.15-1.154,0.488v1.383c0,0.472-0.332,0.678-0.791,0.52
						c-2.266-0.782-4.394-1.122-6.313-1.037c-0.401,0.018-0.916-0.327-1.25-0.853l-0.972-1.533
						c-0.451-0.711-1.182-1.133-1.633-0.943l-4.024,1.701c-0.451,0.19-0.451,0.921,0,1.632l0.973,1.535
						c0.333,0.526,0.381,1.069,0.132,1.326c-1.193,1.231-2.08,2.846-2.606,4.807c-0.107,0.398-0.505,0.5-0.976,0.228l-1.386-0.8
						c-0.638-0.368-1.154-0.15-1.154,0.488v5.692c0,0.638,0.517,1.452,1.154,1.821l1.387,0.801c0.471,0.272,0.87,0.834,0.976,1.355
						c0.527,2.57,1.414,5.209,2.607,7.815c0.249,0.544,0.202,1.033-0.132,1.174l-0.975,0.412c-0.451,0.191-0.451,0.921,0,1.632
						l4.025,6.348c0.451,0.711,1.182,1.133,1.633,0.942l0.976-0.413c0.333-0.141,0.849,0.11,1.249,0.59
						c1.918,2.299,4.044,4.413,6.31,6.246c0.459,0.372,0.791,0.961,0.791,1.433v1.391c0,0.637,0.517,1.452,1.154,1.82l5.692,3.286
						c0.638,0.368,1.154,0.15,1.154-0.488v-1.391c0-0.472,0.332-0.678,0.791-0.519c2.265,0.782,4.391,1.123,6.309,1.039
						c0.401-0.018,0.916,0.327,1.25,0.853l0.977,1.54c0.451,0.711,1.181,1.133,1.632,0.943l4.024-1.701
						c0.451-0.191,0.451-0.921,0-1.632l-0.976-1.539c-0.334-0.526-0.381-1.069-0.132-1.326c1.192-1.23,2.079-2.844,2.606-4.805
						c0.107-0.398,0.505-0.5,0.976-0.227l1.389,0.802C516.653,103.377,517.17,103.159,517.17,102.521z M491.819,97.202
						c-5.606-3.837-10.148-10.972-10.794-16.946c-0.853-7.887,4.907-10.847,12.143-6.669c6.757,3.901,12.228,12.54,12.228,19.287
						C505.396,100.076,499.182,102.241,491.819,97.202z"/>
				</g>
				<g style="opacity:0.2;">
					<path style="fill:#FFFFFF;" d="M297.056,190.727v-5.692c0-0.637-0.517-1.452-1.154-1.82l-1.388-0.801
						c-0.472-0.272-0.87-0.834-0.976-1.355c-0.526-2.568-1.413-5.207-2.606-7.814c-0.249-0.544-0.202-1.033,0.132-1.173l0.975-0.412
						c0.451-0.19,0.451-0.921,0-1.632l-4.025-6.348c-0.451-0.711-1.182-1.133-1.632-0.943l-0.973,0.411
						c-0.334,0.141-0.849-0.11-1.25-0.59c-1.919-2.301-4.046-4.417-6.312-6.252c-0.459-0.372-0.791-0.961-0.791-1.433v-1.383
						c0-0.637-0.517-1.453-1.154-1.821l-5.692-3.286c-0.637-0.368-1.154-0.15-1.154,0.488v1.383c0,0.472-0.332,0.678-0.791,0.519
						c-2.266-0.782-4.394-1.122-6.313-1.037c-0.401,0.018-0.916-0.327-1.25-0.853l-0.972-1.533
						c-0.451-0.711-1.182-1.133-1.633-0.943l-4.024,1.701c-0.451,0.19-0.451,0.921,0,1.632l0.973,1.535
						c0.333,0.526,0.381,1.069,0.132,1.326c-1.193,1.231-2.08,2.846-2.606,4.807c-0.107,0.398-0.505,0.5-0.976,0.227l-1.386-0.8
						c-0.638-0.368-1.154-0.15-1.154,0.488v5.692c0,0.638,0.517,1.452,1.154,1.82l1.387,0.801c0.471,0.272,0.869,0.834,0.976,1.355
						c0.527,2.57,1.414,5.209,2.606,7.815c0.249,0.544,0.202,1.033-0.131,1.174l-0.975,0.412c-0.451,0.191-0.451,0.921,0,1.632
						l4.024,6.349c0.451,0.711,1.182,1.133,1.633,0.942l0.976-0.413c0.333-0.141,0.849,0.109,1.249,0.59
						c1.918,2.299,4.044,4.413,6.31,6.246c0.46,0.372,0.791,0.961,0.791,1.433v1.391c0,0.637,0.517,1.453,1.154,1.821l5.692,3.286
						c0.638,0.368,1.154,0.149,1.154-0.488v-1.391c0-0.472,0.332-0.678,0.791-0.519c2.265,0.782,4.391,1.123,6.309,1.039
						c0.401-0.018,0.916,0.327,1.25,0.853l0.976,1.54c0.451,0.711,1.182,1.133,1.632,0.943l4.025-1.701
						c0.451-0.191,0.451-0.921,0-1.632l-0.976-1.539c-0.334-0.526-0.381-1.069-0.132-1.326c1.192-1.23,2.079-2.844,2.606-4.805
						c0.107-0.398,0.505-0.5,0.976-0.227l1.389,0.802C296.539,191.583,297.056,191.365,297.056,190.727z M271.705,185.408
						c-5.606-3.837-10.148-10.972-10.794-16.946c-0.853-7.887,4.907-10.847,12.143-6.669c6.757,3.901,12.228,12.54,12.228,19.287
						C285.282,188.282,279.068,190.447,271.705,185.408z"/>
				</g>
				<g>
					<path style="fill:#B8DFFF;" d="M517.17,102.525c0,0.267-0.089,0.458-0.255,0.56l1.133-0.649l4.647-2.687l0.076-0.038
						c0,0,0.064-0.051,0.153-0.127c0.089-0.115,0.14-0.267,0.14-0.458v-5.692c0-0.42-0.229-0.929-0.573-1.324l-5.908,3.387
						c0.344,0.395,0.586,0.904,0.586,1.337V102.525z"/>
				</g>
				<g>
					<path style="fill:#B8DFFF;" d="M489.527,60.037c0.204-0.076,0.484-0.038,0.802,0.14l5.692,3.285
						c0.306,0.178,0.586,0.458,0.789,0.777l5.87-3.425c-0.204-0.306-0.484-0.573-0.777-0.751l-5.691-3.285
						c-0.318-0.178-0.611-0.216-0.815-0.14l-0.14,0.089l-3.158,1.821L489.527,60.037z"/>
				</g>
				<g>
					<path style="fill:#B8DFFF;" d="M504.271,74.348c0.025,0.038,0.064,0.064,0.089,0.102c0.395,0.42,0.853,0.624,1.159,0.497
						l0.98-0.42l5.882-3.4l-0.968,0.42c-0.331,0.14-0.853-0.115-1.248-0.598L504.271,74.348z"/>
				</g>
				<g>
					<path style="fill:#B8DFFF;" d="M478.208,58.203c0.458-0.191,1.184,0.229,1.63,0.942l0.98,1.528
						c0.089,0.14,0.191,0.268,0.306,0.382c0.28,0.293,0.611,0.471,0.904,0.471h0.038l5.882-3.4
						c-0.395,0.025-0.917-0.318-1.248-0.853l-0.968-1.528c-0.446-0.713-1.184-1.133-1.63-0.942L478.208,58.203z"/>
				</g>
				<g>
					<polygon style="fill:#B8DFFF;" points="480.008,56.533 474.186,59.9 478.208,58.203 484.103,54.803 					"/>
				</g>
			</g>
			<g>
				<g>
					<path style="fill:#754A88;" d="M444.816,89.626v4.163c0,0.466,0.378,1.062,0.844,1.331l1.014,0.586
						c0.345,0.199,0.636,0.61,0.714,0.991c0.385,1.879,1.034,3.81,1.906,5.716c0.182,0.398,0.148,0.755-0.096,0.858l-0.713,0.301
						c-0.33,0.139-0.33,0.674,0,1.194l2.943,4.643c0.33,0.52,0.865,0.829,1.194,0.689l0.714-0.302
						c0.244-0.103,0.621,0.08,0.914,0.431c1.403,1.682,2.958,3.227,4.615,4.569c0.336,0.272,0.579,0.703,0.579,1.048v1.017
						c0,0.466,0.378,1.062,0.844,1.332l4.163,2.404c0.467,0.269,0.844,0.109,0.844-0.357v-1.017c0-0.345,0.243-0.496,0.579-0.38
						c1.656,0.572,3.211,0.821,4.614,0.76c0.015-0.001,0.032,0.007,0.048,0.008c-0.043,0.434,0.186,1.188,0.186,1.188l1.225,2.486
						l4.307-2.486c0.33-0.139,0.33-0.674,0-1.194l-0.714-1.125c-0.244-0.384-0.278-0.782-0.096-0.97
						c0.872-0.9,1.521-2.08,1.906-3.515c0.078-0.291,0.369-0.366,0.714-0.167l1.016,0.587c0.466,0.269,0.844,0.109,0.844-0.357
						v-4.163c0-0.466-0.378-1.062-0.844-1.332l-1.015-0.586c-0.345-0.199-0.636-0.61-0.714-0.991
						c-0.385-1.879-1.034-3.809-1.906-5.716c-0.116-0.254-0.134-0.483-0.076-0.649l0.885-0.511c0.33-0.139,0.33-0.674,0-1.194
						l-2.943-4.643c-0.33-0.52-0.864-0.829-1.194-0.689l-0.712,0.301c-0.244,0.103-0.621-0.08-0.914-0.432
						c-1.404-1.683-2.959-3.231-4.617-4.573c-0.336-0.272-0.579-0.703-0.579-1.048v-1.011c0-0.466-0.378-1.062-0.844-1.332
						l-4.163-2.404c-0.466-0.269-0.844-0.109-0.844,0.357v1.012c0,0.345-0.243,0.496-0.579,0.38
						c-1.658-0.572-3.214-0.821-4.617-0.759c-0.293,0.013-0.67-0.239-0.914-0.624l-0.711-1.122c-0.33-0.52-0.864-0.829-1.194-0.689
						l-2.943,1.244c-0.33,0.139-0.33,0.674,0,1.194l0.712,1.123c0.244,0.385,0.278,0.782,0.096,0.969
						c-0.872,0.9-1.521,2.081-1.906,3.516c-0.078,0.291-0.369,0.365-0.714,0.166l-1.014-0.585
						C445.194,89,444.816,89.159,444.816,89.626z M462.37,92.896c4.942,2.854,8.943,9.173,8.943,14.107
						c0,5.268-4.545,6.851-9.93,3.165c-4.1-2.806-7.423-8.025-7.895-12.395C452.865,92.005,457.077,89.84,462.37,92.896z"/>
				</g>
				<g>
					<path style="fill:#00CBF1;" d="M444.82,89.624v4.163c0,0.466,0.373,1.062,0.838,1.332l1.015,0.587
						c0.345,0.195,0.633,0.615,0.717,0.987c0.382,1.881,1.034,3.818,1.909,5.718c0.177,0.401,0.14,0.755-0.102,0.857l-0.708,0.307
						c-0.335,0.14-0.335,0.671,0,1.192l2.943,4.647c0.326,0.512,0.866,0.829,1.192,0.689l0.717-0.307
						c0.242-0.103,0.615,0.084,0.913,0.428c1.397,1.685,2.952,3.231,4.61,4.573c0.335,0.27,0.577,0.708,0.577,1.052v1.015
						c0,0.466,0.382,1.062,0.848,1.332l4.163,2.403c0.466,0.27,0.848,0.112,0.848-0.354v-1.025c0-0.344,0.242-0.493,0.577-0.372
						c1.658,0.568,3.213,0.819,4.61,0.754c0.019,0,0.037,0.009,0.056,0.009c-0.046,0.438,0.177,1.192,0.177,1.192l1.229,2.477
						l4.303-2.477c0.335-0.14,0.335-0.68,0-1.201l-0.708-1.127c-0.242-0.382-0.28-0.773-0.102-0.969
						c0.875-0.894,1.527-2.077,1.909-3.511c0.084-0.289,0.372-0.363,0.717-0.168l1.015,0.587c0.466,0.27,0.847,0.112,0.847-0.354
						v-4.163c0-0.466-0.382-1.062-0.847-1.332l-1.015-0.587c-0.345-0.205-0.633-0.615-0.717-0.996
						c-0.382-1.872-1.034-3.809-1.9-5.709c-0.121-0.261-0.14-0.484-0.084-0.652l0.885-0.512c0.335-0.14,0.335-0.671,0-1.192
						l-2.943-4.647c-0.326-0.521-0.857-0.829-1.192-0.689l-0.708,0.307c-0.242,0.103-0.624-0.084-0.913-0.438
						c-1.406-1.676-2.962-3.231-4.619-4.573c-0.335-0.27-0.577-0.698-0.577-1.043v-1.015c0-0.465-0.382-1.062-0.848-1.332
						l-4.163-2.403c-0.233-0.13-0.447-0.158-0.596-0.103c-0.158,0.065-0.251,0.224-0.251,0.457v1.015
						c0,0.344-0.242,0.493-0.577,0.382c-0.54-0.186-1.071-0.345-1.583-0.456c-1.071-0.251-2.086-0.345-3.036-0.307
						c-0.288,0.019-0.671-0.233-0.913-0.624l-0.708-1.118c-0.326-0.522-0.866-0.829-1.192-0.689l-2.943,1.238
						c-0.335,0.14-0.335,0.68,0,1.201l0.708,1.118c0.242,0.382,0.279,0.782,0.093,0.969c-0.866,0.903-1.518,2.086-1.9,3.52
						c-0.084,0.289-0.373,0.363-0.717,0.168l-1.015-0.587C445.193,89.001,444.82,89.159,444.82,89.624z M462.366,92.893
						c4.945,2.859,8.95,9.173,8.95,14.109c0,5.271-4.545,6.854-9.927,3.166c-4.107-2.803-7.432-8.028-7.897-12.395
						C452.867,92.008,457.076,89.839,462.366,92.893z"/>
				</g>
				<g>
					<path style="fill:#00CBF1;" d="M440.845,91.635l4.204-2.455l0.117,2.455c0,0-1.994,1.802-2.219,1.841
						c-0.225,0.039-1.06,0-1.06,0L440.845,91.635z"/>
				</g>
				<g>
					<polygon style="fill:#00CBF1;" points="465.097,120.666 460.8,123.146 460.61,120.813 462.853,120.503 					"/>
				</g>
				<g>
					<path style="fill:#EBFFFF;" d="M475.618,116.545v-4.163c0-0.466-0.378-1.062-0.844-1.332l-1.015-0.586
						c-0.345-0.199-0.636-0.61-0.714-0.991c-0.385-1.879-1.033-3.809-1.906-5.716c-0.182-0.398-0.148-0.755,0.096-0.858l0.713-0.301
						c0.33-0.139,0.33-0.674,0-1.194l-2.944-4.643c-0.33-0.52-0.864-0.829-1.194-0.689l-0.712,0.301
						c-0.244,0.103-0.621-0.08-0.914-0.432c-1.404-1.683-2.959-3.23-4.617-4.573c-0.336-0.272-0.578-0.703-0.578-1.048v-1.012
						c0-0.466-0.378-1.062-0.844-1.332l-4.164-2.404c-0.466-0.269-0.844-0.109-0.844,0.357v1.011c0,0.345-0.243,0.496-0.579,0.38
						c-1.658-0.572-3.214-0.821-4.617-0.759c-0.293,0.013-0.67-0.239-0.914-0.624l-0.711-1.122c-0.329-0.52-0.864-0.829-1.194-0.689
						l-2.944,1.244c-0.329,0.139-0.329,0.674,0,1.194l0.712,1.123c0.244,0.384,0.278,0.781,0.096,0.969
						c-0.872,0.9-1.521,2.082-1.906,3.516c-0.078,0.291-0.369,0.366-0.714,0.166l-1.013-0.585c-0.466-0.269-0.844-0.109-0.844,0.357
						v4.163c0,0.466,0.378,1.063,0.844,1.332l1.014,0.586c0.345,0.199,0.636,0.61,0.714,0.991c0.385,1.88,1.034,3.81,1.906,5.716
						c0.182,0.398,0.148,0.756-0.096,0.859l-0.713,0.301c-0.329,0.14-0.33,0.674,0,1.194l2.944,4.643
						c0.33,0.52,0.865,0.829,1.194,0.69l0.714-0.302c0.244-0.103,0.621,0.08,0.914,0.431c1.403,1.681,2.958,3.227,4.615,4.569
						c0.336,0.272,0.579,0.703,0.579,1.048v1.017c0,0.466,0.378,1.063,0.844,1.331l4.164,2.404c0.466,0.269,0.844,0.109,0.844-0.357
						v-1.018c0-0.345,0.243-0.496,0.579-0.38c1.656,0.572,3.211,0.821,4.614,0.76c0.293-0.013,0.67,0.239,0.914,0.624l0.714,1.127
						c0.33,0.52,0.864,0.829,1.194,0.689l2.944-1.245c0.33-0.139,0.33-0.674,0-1.194l-0.714-1.125
						c-0.244-0.385-0.278-0.782-0.096-0.97c0.872-0.899,1.521-2.08,1.906-3.514c0.078-0.291,0.369-0.366,0.714-0.166l1.016,0.586
						C475.24,117.171,475.618,117.011,475.618,116.545z M457.076,112.654c-4.1-2.806-7.423-8.025-7.895-12.394
						c-0.624-5.769,3.589-7.934,8.882-4.878c4.943,2.853,8.944,9.172,8.944,14.107C467.007,114.757,462.462,116.34,457.076,112.654z
						"/>
				</g>
				<g>
					<path style="fill:#00CBF1;" d="M475.618,116.548c0,0.196-0.065,0.335-0.186,0.41l0.829-0.475l3.399-1.965l0.056-0.028
						c0,0,0.047-0.037,0.112-0.093c0.065-0.084,0.102-0.196,0.102-0.335v-4.163c0-0.307-0.167-0.68-0.419-0.968l-4.321,2.477
						c0.251,0.289,0.428,0.661,0.428,0.978V116.548z"/>
				</g>
				<g>
					<path style="fill:#00CBF1;" d="M455.4,85.471c0.149-0.056,0.354-0.028,0.587,0.103l4.163,2.403
						c0.224,0.13,0.428,0.335,0.577,0.568l4.293-2.505c-0.149-0.224-0.354-0.419-0.568-0.549l-4.163-2.403
						c-0.233-0.13-0.447-0.158-0.596-0.103l-0.103,0.065l-2.31,1.332L455.4,85.471z"/>
				</g>
				<g>
					<path style="fill:#00CBF1;" d="M466.184,95.939c0.019,0.028,0.047,0.046,0.065,0.074c0.288,0.308,0.624,0.456,0.847,0.363
						l0.717-0.307l4.302-2.487l-0.708,0.307c-0.242,0.103-0.624-0.084-0.913-0.438L466.184,95.939z"/>
				</g>
				<g>
					<path style="fill:#00CBF1;" d="M447.12,84.13c0.335-0.14,0.866,0.168,1.192,0.689l0.717,1.118
						c0.065,0.102,0.14,0.196,0.224,0.279c0.205,0.214,0.447,0.345,0.661,0.345h0.028l4.302-2.487
						c-0.288,0.019-0.671-0.233-0.913-0.624l-0.708-1.118c-0.326-0.522-0.866-0.829-1.192-0.689L447.12,84.13z"/>
				</g>
				<g>
					<polygon style="fill:#00CBF1;" points="448.438,82.908 444.179,85.371 447.12,84.13 451.432,81.643 					"/>
				</g>
			</g>
		</g>
		<g>
			<path style="opacity:0.2;fill:#FFFFFF;" d="M260.147,25.72v29.309c0,0.787,0.379,1.531,1.035,1.983
				c0.029,0.014,0.058,0.044,0.087,0.058l9.58,5.905l19.787,12.19c0.35,0.219,0.744,0.19,1.035-0.015
				c0.248-0.16,0.438-0.452,0.438-0.802V45.785c0-1.035-0.539-1.998-1.414-2.552l-29.44-18.139
				c-0.219-0.131-0.452-0.146-0.656-0.058c-0.044,0.015-0.087,0.044-0.131,0.073C260.278,25.239,260.147,25.458,260.147,25.72z"/>
			<path style="opacity:0.2;fill:#FFFFFF;" d="M471.967,165.082v29.309c0,0.787,0.379,1.531,1.035,1.983
				c0.029,0.015,0.058,0.044,0.087,0.058l9.58,5.906l19.787,12.19c0.35,0.219,0.744,0.19,1.035-0.015
				c0.248-0.16,0.438-0.452,0.438-0.802v-28.565c0-1.035-0.539-1.998-1.414-2.552l-29.44-18.139
				c-0.219-0.131-0.452-0.146-0.656-0.058c-0.044,0.014-0.087,0.044-0.131,0.073C472.098,164.601,471.967,164.819,471.967,165.082z"
				/>
			<path style="opacity:0.2;fill:#FFFFFF;" d="M564.616,298.408v18.225c0,0.49,0.236,0.952,0.644,1.233
				c0.018,0.009,0.036,0.027,0.054,0.036l5.957,3.672l12.304,7.58c0.218,0.136,0.463,0.118,0.644-0.009
				c0.154-0.1,0.272-0.281,0.272-0.499v-17.763c0-0.644-0.336-1.242-0.88-1.587l-18.307-11.28c-0.136-0.082-0.281-0.091-0.408-0.036
				c-0.027,0.009-0.054,0.027-0.082,0.045C564.698,298.109,564.616,298.245,564.616,298.408z"/>
		</g>
		<g>
			<path style="fill:#5A67DB;" d="M457.094,437.297l-165.91-95.645c-3.63-2.096-4.038-5.301-0.906-7.123l4.332-2.523
				c3.132-1.822,8.665-1.598,12.295,0.498l165.91,95.645c3.63,2.096,4.038,5.301,0.906,7.123l-4.332,2.523
				C466.257,439.617,460.724,439.393,457.094,437.297z"/>
			<path style="fill:#205AAF;" d="M423.141,77.304l-14.746-7.999l-2.41-6.543c-1.029-2.793-3.265-5.438-5.725-6.773l-24.767-13.434
				c-1.773-0.962-3.421-1.104-4.593-0.488l-0.003-0.015l-0.087,0.055c-0.047,0.027-0.091,0.057-0.136,0.086l-5.648,3.586
				l-12.414-6.734c-1.94-1.052-3.663-1.076-4.777-0.266l0-0.007l-6.5,4.146c0,0,4.2,1.26,5.194,1.454v19.665l82.696,44.857V86.688
				C429.224,83.328,426.501,79.127,423.141,77.304z"/>
			<g>
				<path style="fill:#1B115E;" d="M290.942,24.656l6.573-4.066c1.117-0.481,2.423-0.515,3.595,0.165l169.321,98.151
					c3.353,1.943,5.395,5.525,5.395,9.46v275.943c0,1.843-1.01,3.365-2.412,4.198h0l0,0c-0.327,0.194-0.677,0.348-1.039,0.463
					l-5.458,3.608l-1.41-2.676l-168.076-97.429c-2.745-1.591-4.418-4.524-4.418-7.747V26.458c0-0.508,0.115-0.972,0.276-1.413
					l-1.781,0.569L290.942,24.656z"/>
				<path style="fill:#00CBF1;" d="M288.615,28.399v278.268c0,3.222,1.673,6.155,4.418,7.746l169.296,98.136
					c3.141,1.821,7.183-0.58,7.183-4.267V132.34c0-3.935-2.043-7.517-5.395-9.461L294.795,24.728
					C292.093,23.161,288.615,25.227,288.615,28.399z"/>
				<path style="fill:#EBFFFF;" d="M294.795,35.191v269.71c0,1.207,0.626,2.305,1.655,2.901l164.472,95.34
					c1.054,0.611,2.41-0.195,2.41-1.432V132.413c0-1.755-0.911-3.352-2.406-4.219L297.605,33.521
					C296.376,32.809,294.795,33.748,294.795,35.191z"/>
			</g>
			<polygon style="fill:#205AAF;" points="422.845,98.955 429.224,95.019 422.219,89.833 			"/>
			<path style="fill:#3977E5;" d="M416.761,81.358l-14.746-7.999l-2.41-6.543c-1.029-2.793-3.264-5.438-5.725-6.773L369.114,46.61
				c-2.461-1.335-4.696-1.115-5.725,0.562l-2.41,3.928l-14.746-7.999c-3.36-1.822-6.084-0.576-6.084,2.784v22.207l82.696,44.857
				V90.741C422.845,87.382,420.121,83.18,416.761,81.358z"/>
			<g style="opacity:0.5;">
				<path style="fill:#6ADFEF;" d="M355.573,124.738v2.296c0,0.282,0.146,0.538,0.386,0.677l45.563,26.505
					c0.246,0.143,0.563-0.046,0.563-0.334v-2.199c0-0.41-0.213-0.782-0.562-0.985l-45.295-26.349
					C355.942,124.182,355.573,124.401,355.573,124.738z"/>
				<path style="fill:#6ADFEF;" d="M359.412,133.584v2.296c0,0.282,0.146,0.538,0.386,0.677l36.122,21.084
					c0.246,0.143,0.563-0.046,0.563-0.334v-2.199c0-0.41-0.213-0.782-0.562-0.985l-35.853-20.928
					C359.781,133.028,359.412,133.247,359.412,133.584z"/>
				<path style="fill:#6ADFEF;" d="M336.881,133.925v4.051c0,0.497,0.258,0.949,0.682,1.195l83.861,48.669
					c0.434,0.252,0.993-0.08,0.993-0.59v-3.881c0-0.723-0.375-1.381-0.991-1.738l-83.387-48.393
					C337.532,132.944,336.881,133.331,336.881,133.925z"/>
				<path style="fill:#6ADFEF;" d="M325.721,139.105v4.051c0,0.497,0.258,0.95,0.682,1.195l102.79,59.912
					c0.434,0.251,0.993-0.08,0.993-0.59v-3.881c0-0.723-0.375-1.381-0.991-1.738l-102.315-59.637
					C326.372,138.124,325.721,138.511,325.721,139.105z"/>
				<path style="fill:#6ADFEF;" d="M325.721,150.988v4.051c0,0.497,0.258,0.95,0.682,1.195l102.789,59.872
					c0.434,0.252,0.993-0.08,0.993-0.59v-3.881c0-0.723-0.375-1.381-0.991-1.738L326.879,150.3
					C326.373,150.006,325.721,150.393,325.721,150.988z"/>
				<path style="fill:#6ADFEF;" d="M325.721,162.971v4.051c0,0.497,0.258,0.95,0.682,1.195l102.79,59.731
					c0.434,0.251,0.993-0.08,0.993-0.59v-3.881c0-0.723-0.375-1.381-0.991-1.738l-102.315-59.456
					C326.372,161.989,325.721,162.376,325.721,162.971z"/>
				<path style="fill:#6ADFEF;" d="M325.721,174.813v4.051c0,0.497,0.258,0.949,0.682,1.195l102.79,59.731
					c0.434,0.251,0.993-0.08,0.993-0.59v-3.881c0-0.723-0.375-1.381-0.991-1.738l-102.315-59.456
					C326.372,173.832,325.721,174.219,325.721,174.813z"/>
				<path style="fill:#6ADFEF;" d="M325.721,186.635v4.051c0,0.497,0.258,0.95,0.682,1.195l102.79,59.751
					c0.434,0.252,0.993-0.08,0.993-0.59v-3.881c0-0.723-0.375-1.381-0.991-1.738l-102.315-59.476
					C326.372,185.654,325.721,186.041,325.721,186.635z"/>
				<path style="fill:#6ADFEF;" d="M325.721,198.497v4.051c0,0.497,0.258,0.95,0.682,1.195l102.79,59.731
					c0.434,0.252,0.993-0.08,0.993-0.59v-3.881c0-0.723-0.375-1.381-0.991-1.738l-102.315-59.456
					C326.372,197.516,325.721,197.903,325.721,198.497z"/>
				<path style="fill:#6ADFEF;" d="M325.721,210.339v4.051c0,0.497,0.258,0.949,0.682,1.195l102.79,59.731
					c0.434,0.252,0.993-0.08,0.993-0.59v-3.881c0-0.723-0.375-1.381-0.991-1.738l-102.315-59.456
					C326.372,209.358,325.721,209.745,325.721,210.339z"/>
				<path style="fill:#6ADFEF;" d="M325.721,222.182v4.051c0,0.497,0.258,0.95,0.682,1.195l102.79,59.731
					c0.434,0.252,0.993-0.08,0.993-0.59v-3.881c0-0.723-0.375-1.381-0.991-1.738l-102.315-59.456
					C326.372,221.2,325.721,221.587,325.721,222.182z"/>
				<path style="fill:#6ADFEF;" d="M325.721,234.024v4.051c0,0.497,0.258,0.949,0.682,1.195l102.79,59.731
					c0.434,0.252,0.993-0.08,0.993-0.59v-3.881c0-0.723-0.375-1.381-0.991-1.738l-102.315-59.456
					C326.372,233.043,325.721,233.43,325.721,234.024z"/>
				<path style="fill:#6ADFEF;" d="M325.721,245.866v4.051c0,0.497,0.258,0.949,0.682,1.195l102.79,59.731
					c0.434,0.252,0.993-0.08,0.993-0.59v-3.881c0-0.723-0.375-1.381-0.991-1.738l-102.315-59.456
					C326.372,244.885,325.721,245.272,325.721,245.866z"/>
			</g>
			<g>
				<path style="fill:#00CBF1;" d="M344.666,114.116V87.655l6.074,3.294c2.055,1.115,3.46,2.501,4.217,4.16
					c0.756,1.659,1.155,3.737,1.195,6.234v0.557c0,2.626-0.373,4.415-1.119,5.369c-0.747,0.953-2.133,0.88-4.158-0.218l-2.18-1.183
					v10.434L344.666,114.116z M348.695,102.544l1.383,0.75c0.853,0.463,1.406,0.435,1.662-0.083
					c0.256-0.518,0.383-1.699,0.383-3.544v-0.511c-0.01-1.569-0.148-2.761-0.413-3.577c-0.266-0.816-0.8-1.442-1.602-1.876
					l-1.413-0.767V102.544z"/>
				<path style="fill:#00CBF1;" d="M357.22,120.926l3.773-24.414l5.322,2.887l4.015,28.639l-3.759-2.038l-0.632-5.063l-4.27-2.316
					l-0.571,4.411L357.22,120.926z M365.52,117.474l-1.774-14.254l-0.06-0.032l-1.624,12.41L365.52,117.474z"/>
				<path style="fill:#00CBF1;" d="M374.165,130.117v-22.974l-3.097-1.68v-3.488l10.089,5.473v3.488l-2.977-1.615v22.974
					L374.165,130.117z"/>
				<path style="fill:#00CBF1;" d="M383.381,135.116v-26.461l8.871,4.812v3.474l-4.841-2.627v7.698l4.601,2.496v3.398l-4.601-2.496
					v8.42l5.022,2.724v3.473L383.381,135.116z"/>
				<path style="fill:#00CBF1;" d="M395.649,141.771v-26.462l3.157,1.713l5.608,18.919l-0.286-7.372v-8.66l3.624,1.966v26.462
					l-2.856-1.55l-5.759-19.557l0.226,7.068v9.487L395.649,141.771z"/>
				<path style="fill:#00CBF1;" d="M413.075,151.223v-22.974l-3.097-1.68v-3.488l10.089,5.473v3.488l-2.977-1.615v22.974
					L413.075,151.223z"/>
			</g>
			<g id="XMLID_1_">
				<g>
					<g id="XMLID_64_">
						<path style="fill:#AAF7F9;" d="M391.637,333.471l-6.511,11.108c-0.277,0.446,0.277,1.363,0.894,1.506l5.192,1.156
							c0.66,0.124,1.383,0.857,1.66,1.645l2.234,6.17c0.255,0.713,1.085,1.163,1.34,0.727l5.915-10.026"/>
						<path style="fill:#AAF7F9;" d="M418.852,348.254l6.532,18.162c0.255,0.734-0.298,1.051-0.915,0.525l-5.171-4.464
							c-0.681-0.604-1.383-0.644-1.681-0.167l-2.213,3.758c-0.277,0.424-1.106-0.026-1.362-0.739l-5.894-16.432"/>
					</g>
					<path id="XMLID_63_" style="fill:#50E5F9;" d="M428.116,339.143c0,1.294-2.132,1.231-2.348,2.346
						c-0.222,1.147,1.404,3.783,0.974,4.732c-0.438,0.966-2.815-0.027-3.448,0.724c-0.639,0.758,0.287,3.467-0.528,3.996
						c-0.818,0.53-3.153-1.268-4.127-0.978c-0.971,0.289-0.851,2.746-1.955,2.786c-1.094,0.04-3.105-2.347-4.309-2.561
						c-1.182-0.211-1.889,1.695-3.157,1.229c-1.233-0.453-2.676-3.142-3.971-3.844c-1.294-0.702-2.738,0.421-3.971-0.464
						c-1.268-0.909-1.974-3.582-3.157-4.654c-1.203-1.091-3.215-0.887-4.309-2.113c-1.104-1.238-0.984-3.565-1.955-4.908
						c-0.974-1.346-3.309-2.081-4.127-3.499c-0.816-1.414,0.111-3.118-0.528-4.569c-0.633-1.437-3.01-3.023-3.448-4.464
						c-0.43-1.416,1.196-2.287,0.974-3.675c-0.216-1.35-2.348-3.599-2.348-4.893c0-1.294,2.132-1.231,2.347-2.347
						c0.222-1.147-1.404-3.783-0.974-4.732c0.438-0.966,2.815,0.027,3.448-0.724c0.639-0.758-0.288-3.467,0.528-3.996
						c0.818-0.53,3.153,1.268,4.127,0.978c0.971-0.289,0.851-2.746,1.955-2.786c1.094-0.04,3.105,2.347,4.309,2.561
						c1.182,0.211,1.889-1.695,3.157-1.229c1.233,0.453,2.676,3.142,3.971,3.844c1.294,0.702,2.738-0.421,3.971,0.464
						c1.268,0.909,1.974,3.582,3.157,4.654c1.203,1.091,3.215,0.887,4.309,2.113c1.104,1.238,0.984,3.565,1.955,4.907
						c0.974,1.346,3.309,2.081,4.127,3.499c0.816,1.414-0.111,3.118,0.528,4.569c0.633,1.437,3.01,3.023,3.448,4.464
						c0.431,1.416-1.196,2.287-0.974,3.675C425.984,335.6,428.116,337.849,428.116,339.143z"/>
					
						<ellipse id="XMLID_62_" transform="matrix(0.7943 -0.6076 0.6076 0.7943 -115.1433 313.4245)" style="fill:#C0F8F9;" cx="405.247" cy="326.739" rx="11.967" ry="20.452"/>
				</g>
			</g>
		</g>
		<g id="XMLID_4_">
			<path style="fill:#5A67DB;" d="M282.814,441.036l50.16-28.96c2.934-1.694,3.264-4.285,0.732-5.758l-20.528-11.837
				c-2.532-1.473-7.004-1.292-9.939,0.403l-50.16,28.96c-2.934,1.694-3.264,4.285-0.732,5.758l20.528,11.837
				C275.407,442.911,279.879,442.73,282.814,441.036z"/>
			<path style="fill:#5A67DB;" d="M375.568,484.428l50.16-28.96c2.934-1.694,3.264-4.285,0.732-5.758l-20.528-11.837
				c-2.532-1.473-7.004-1.292-9.939,0.403l-50.16,28.96c-2.935,1.694-3.264,4.285-0.732,5.758l20.528,11.837
				C368.161,486.304,372.634,486.123,375.568,484.428z"/>
			<g id="XMLID_2260_">
				<path id="XMLID_2264_" style="fill:#1A1401;" d="M314.994,413.974c-0.19-0.509-1.458-1.725-1.458-1.725l-18.723-3.715
					c0,0-0.072,2.23-0.118,2.432c-0.046,0.202,2.05,1.381,3.096,1.868c1.046,0.487,1.543,0.595,1.543,0.595l0.904-0.333
					c0.484,0.114,1.162,0.309,1.766,0.624c1.073,0.56,2.834,1.764,4.629,2.486c1.796,0.723,3.949,1.259,6.061,0.706
					C314.806,416.36,315.305,414.808,314.994,413.974z"/>
				<path id="XMLID_2261_" style="fill:#2E268E;" d="M302.862,402.944c0,0,1.137,0.473,3.785,3.138
					c2.649,2.666,7.57,5.503,8.331,7.058c0.653,1.335-0.013,2.666-2.373,3.374c-2.399,0.72-6.277-0.996-8.682-2.625
					c-2.405-1.629-7.765-2.58-8.752-4.233c-0.972-1.628,0.232-4.413,0.683-5.101C296.304,403.867,297.268,401.631,302.862,402.944z"
					/>
			</g>
			<path id="XMLID_2257_" style="fill:#1A1401;" d="M284.77,420.571c0,0,1.123,2.225,1.016,3.738
				c-0.065,0.907-0.727,2.949-1.729,3.694c-0.842,0.627-3.413,1.599-7.756-1.037c-4.342-2.636-3.154-8.214-3.089-9.011
				c0.065-0.798,0.177-3.237,0.013-4.469"/>
			<path id="XMLID_2254_" style="fill:#2E268E;" d="M273.167,413.024c0,0,0.216,1.328,0.23,4.278c0.014,2.95-0.091,4.934,1.42,7.049
				c1.881,2.634,5.792,4.173,8.065,3.255c3.14-1.268,2.831-4.834,2.208-6.776c-0.623-1.942-2.837-3.835-3.253-5.901
				c-0.416-2.066,0.411-6.241-3.803-6.803C274.369,407.637,272.493,409.364,273.167,413.024z"/>
			<path id="XMLID_2251_" style="fill:#FFDBB3;" d="M325.279,316.144c0,0,0.88,0.918,1.093,1.322
				c0.213,0.404-0.027,0.96,0.198,2.236c0.225,1.276,1.996,4.849,3.257,5.66c1.261,0.811,4.219-1.84,3.633-4.203
				c-0.586-2.363-3.843-8.617-3.843-8.617"/>
			<path id="XMLID_2250_" style="fill:#F2CFA4;" d="M296.032,397.396c0,0,0.493,5.015,0.362,6.398
				c-0.131,1.383,5.787,2.22,7.404,0.372c0,0,0.26-3.204,0.318-5.399"/>
			<path id="XMLID_2247_" style="fill:#1B115E;" d="M307.301,363.728c-0.897,5.148-2.47,37.403-2.47,37.403
				c-5.419,2.551-9.432-0.536-9.432-0.536s-2.268-23.033-2.356-23.668c-0.908-6.777-0.52-15.161,0.062-17.276
				c0.591-2.125-0.838-17.178-2.526-22.75c-0.771-2.541-1.399-4.241-1.909-5.919c-0.612-1.992-1.056-3.95-1.362-7.247
				c-0.575-6.116,2.346-11.692,2.346-11.692s17.801-1.285,18.224,3.261C308.407,320.932,309.318,352.137,307.301,363.728z"/>
			<path id="XMLID_2246_" style="fill:#F2CFA4;" d="M273.654,404.638c0,0,0.445,4.53,0.327,5.78
				c-0.118,1.249,5.228,2.006,6.689,0.336c0,0,0.235-2.895,0.287-4.877"/>
			<path id="XMLID_2243_" style="fill:#1B115E;" d="M275.595,318.873c0,0-3.367,5.655-3.267,11.75
				c0.098,6.052,0.188,7.613,1.445,13.143c1.257,5.529-1.644,20.315-2.398,22.451c-0.754,2.136-1.451,8.936-1.069,15.691
				c0.37,6.537,2.317,25.21,2.317,25.21s3.921,3.219,9.555,0.519c0,0,2.72-32.967,4.49-37.991
				c3.896-11.059,7.629-32.624,8.344-36.699c1.977-5.348,1.257-10.305,1.257-13.195
				C296.268,316.862,275.595,318.873,275.595,318.873z"/>
			<g id="XMLID_2238_">
				<path id="XMLID_2242_" style="fill:#FFDBB3;" d="M312.052,273.329c0,0-10.545,2.293-11.079,4.292
					c-0.353,1.322,2.019,11.761,5.524,20.439c2.904-1.274,5.606-2.535,7.586-3.719C313.519,289.364,312.052,273.329,312.052,273.329
					"/>
			</g>
			<path id="XMLID_2235_" style="fill:#2662EA;" d="M309.755,258.162c0,0,3.01,9.396,3.617,23.121c0,0-0.896,0.421-8.435,2.488"/>
			<g id="XMLID_2222_">
				<path style="fill:#4171F9;" d="M307.4,307.823c0.35,2.56,0.67,4.92,0.92,6.99c0.11,0.96-0.31,1.89-1.09,2.43
					c-2.3,2.35-10.04,8.72-21.82,10.69c-3.94,0.66-12.01-1.09-12.65-3.45c-0.65-2.37,2.68-14.73,2.73-14.95
					c0.7-3.42,0.38-6.7-0.4-9.9c-0.69-2.83-1.74-5.6-2.76-8.36c-0.14-0.37-0.28-0.73-0.41-1.1c-0.47-1.28-0.92-2.56-1.32-3.85
					c-1.08-3.53-2.14-7.08-3.01-10.64c-0.08-0.35-0.18-0.72-0.27-1.09c-0.47-1.78-0.94-3.71-0.83-5.51
					c0.23-0.59,0.48-1.13,0.73-1.63c0.36-0.77,0.72-1.45,1.09-2.04c0.85-1.4,1.61-2.3,2.16-2.84c0,0,0.02-0.01,0.03-0.03
					c0.34-0.3,0.67-0.58,1.02-0.86c0.58-0.48,1.14-0.9,1.68-1.29c0.43-0.31,0.83-0.6,1.2-0.84c0.17-0.11,0.33-0.21,0.48-0.31
					c0.04-0.03,0.06-0.04,0.09-0.06c0.02-0.02,0.05-0.03,0.07-0.04c0.13-0.09,0.26-0.18,0.39-0.26c0.26-0.18,0.54-0.34,0.8-0.5
					c0.26-0.17,0.55-0.33,0.84-0.49c0.44-0.25,0.93-0.52,1.48-0.79c1.19-0.59,2.69-1.28,4.83-2.12l1.41-0.52
					c0.3-0.1,0.6-0.2,0.92-0.29c1.46-0.45,2.96-0.81,4.48-1.13c2.34-0.5,4.72-0.87,6.97-1.31c0.4,0,0.79,0.01,1.18,0.04
					c1.28,0.07,3.09,0.43,4.68,0.8c3.39,0.77,6.24,3.29,7.09,6.66c0.12,0.49,0.2,1,0.23,1.52
					C310.65,265.553,305.32,292.683,307.4,307.823z"/>
				<path style="fill:#1D5DCE;" d="M279.777,279.243l-4.687,20.39c-0.69-2.83-1.74-5.6-2.76-8.36c-0.14-0.37-0.28-0.73-0.41-1.1
					L279.777,279.243z"/>
				<path id="XMLID_2231_" style="fill:#D5AB80;" d="M295.751,255.043c0,0,2.798,2.671,0.562,4.694l-1.308-2.815l1.252-1.134"/>
				<path id="XMLID_2230_" style="fill:#F4BB87;" d="M284.526,245.113l0.309,10.882c0,0,8.176,6.377,11.478,3.743
					c0.052-1.93,0.036-6.533-0.01-9.195l-3.107-0.629L284.526,245.113z"/>
				<path id="XMLID_2229_" style="fill:#FFDBB3;" d="M302.279,236.753c0,0,0.523,5.261-0.564,10.072
					c-1.086,4.811-1.416,5.897-3.356,6.751c-1.94,0.854-3.685,0.947-6.943-1.149c-3.259-2.095-5.044-5.509-5.044-5.509
					s-0.465,0.305-1.63-1.009c-1.823-2.056-2.172-3.085-2.172-5.878c0-2.793,0.698-6.304,2.871-9.951
					c2.173-3.647,8.845-2.483,11.871-0.931C300.339,230.701,301.703,233.633,302.279,236.753z"/>
				<path id="XMLID_2223_" style="fill:#22224C;" d="M302.626,237.39c-3.134,2.737-9.217,0.001-9.217,0.001l-0.122,1.607
					c-0.612,2.565-2.407,2.803-3.271,3.264c-0.85,0.475-1.052,3.091-1.052,3.091l-1.095-0.115c0,0,0.036-2.486-0.353-3.74
					c-0.396-1.247-2.457-2.212-3.617-0.396c-0.951,1.484-0.058,3.279,0.649,4.576c0,0-1.974,0.599-2.486-7.477
					c0-0.007-3.694-5.161,1.165-7.796c0.491-2.602,3.549-4.695,7.722-4.664c0.001,0,5.386-0.36,8.137,2.822
					c3.322,3.843,4.015,3.758,4.954,2.852C305.328,232.736,304.757,235.528,302.626,237.39z"/>
			</g>
			<g id="XMLID_2131_">
				<g id="XMLID_2133_">
					<polygon id="XMLID_2216_" style="fill:#F5F7FF;" points="249.386,333.713 280.626,352.628 283.996,350.589 252.734,331.674 
											"/>
					<polygon id="XMLID_2213_" style="fill:#CAD2FB;" points="280.62,352.624 280.62,374.977 249.387,356.078 249.387,333.726 					
						"/>
					<polygon id="XMLID_2210_" style="fill:#E6EBFF;" points="280.62,352.624 280.62,362.857 249.387,343.959 249.386,333.713 					
						"/>
					<polygon id="XMLID_2209_" style="fill:#4878D8;" points="269.749,354.82 269.749,357.93 269.333,358.138 260.258,352.187 
						259.841,349.286 260.258,349.077 					"/>
					<polygon id="XMLID_2208_" style="fill:#88A1F2;" points="269.333,355.029 269.333,358.138 259.841,352.395 259.841,349.286 
											"/>
					<polygon id="XMLID_2177_" style="fill:#B6C4FF;" points="280.626,352.628 280.626,374.972 283.996,372.933 283.996,350.589 
											"/>
				</g>
				<path id="XMLID_2132_" style="fill:#4878D8;" d="M261.563,333.923c0.48-0.271,1.072-0.262,1.543,0.023l6.766,4.075
					c1.126,0.681,1.814,1.902,1.814,3.218v3.601c0,0,0.046,0.699-0.757,0.616c-0.705-0.073-0.807-0.616-0.807-0.616v-3.602
					c0-0.764-0.406-1.484-1.06-1.88l-6.308-3.854c-0.177-0.109-0.406,0.018-0.406,0.226v3.479c0,0,0.045,0.697-0.757,0.615
					c-0.705-0.073-0.807-0.615-0.807-0.615v-3.956C260.785,334.703,261.083,334.193,261.563,333.923z"/>
			</g>
			<path id="XMLID_2130_" style="fill:#FFDBB3;" d="M270.169,338.222l-1.874-1.139l-0.13-0.079c-0.245-0.144-0.49-0.194-0.641-0.122
				c-0.159,0.079-0.454,0.613-0.613,1.167c-0.072,0.231-0.115,0.461-0.122,0.663c-0.022,0.785,0.18,1.535,0.468,2.219
				c-1.196-0.108-2.746-0.742-4.093-1.369c-1.535-0.714-1.924-1.34-1.946-1.614c0.007-0.058,0.007-0.122,0.022-0.202
				c0.043-0.375,0.159-0.937,0.317-1.593c0.007-0.036,0.007-0.065,0.014-0.087c0.007-0.029,0.014-0.05,0.022-0.072
				c0.425-1.859,1.066-4.367,1.03-5.419l5.174-3.113c0,0,0.166,3.365,0.223,5.325c0.022,0.893,1.809,2.479,2.054,2.76
				c0.05,0.058,0.13,0.274,0.231,0.591c0,0.007,0,0.007,0,0.014C270.371,336.803,270.169,338.222,270.169,338.222z"/>
			<g id="XMLID_2117_">
				<path id="XMLID_2127_" style="fill:#FFDBB3;" d="M261.76,285.444c0,0-2.404,10.992-2.404,12.849
					c0,1.857,6.153,5.079,9.672,4.219c1.39-0.776,6.064-11.685,6.064-11.685"/>
				<path id="XMLID_2122_" style="fill:#CD6158;" d="M265.353,276.681c0.138-1.077,0.288-2.078,0.413-3.005
					C265.64,274.603,265.503,275.605,265.353,276.681z"/>
				<path id="XMLID_2121_" style="fill:#CD6158;" d="M266.466,268.982c-0.012,0.063-0.025,0.15-0.037,0.238l-0.013,0.013
					C266.429,269.145,266.454,269.057,266.466,268.982z"/>
				<path id="XMLID_1902_" style="fill:#4171F9;" d="M272.182,264.434c4.315-4.419,11.849-8.019,12.649-8.434
					c-0.025-0.876-0.038-1.54-0.038-1.54l-1.415,0.526c-2.141,0.839-3.643,1.527-4.832,2.116c-0.551,0.275-1.039,0.538-1.477,0.789
					c-0.288,0.163-0.576,0.326-0.839,0.488c-0.263,0.163-0.538,0.326-0.801,0.501c-0.125,0.075-0.263,0.163-0.388,0.25
					c-0.025,0.025-0.05,0.038-0.075,0.05c-0.025,0.025-0.05,0.038-0.087,0.062c-0.15,0.1-0.313,0.201-0.476,0.313
					c-0.363,0.238-0.776,0.526-1.202,0.839c-0.538,0.388-1.102,0.814-1.677,1.289c-0.088,0.063-0.188,0.138-0.275,0.213
					c0,0,0,0-0.013,0.013c-0.012,0.012-0.037,0.025-0.075,0.062c-0.025,0.025-0.075,0.05-0.113,0.088
					c-0.063,0.038-0.138,0.1-0.225,0.188c-0.1,0.075-0.2,0.175-0.325,0.3c-0.013,0.013-0.025,0.025-0.025,0.025
					c-0.551,0.538-1.314,1.44-2.166,2.842c-0.363,0.588-0.726,1.265-1.089,2.04c-0.251,0.501-0.501,1.039-0.726,1.627
					c-0.025,0.038-0.05,0.088-0.063,0.138c0.012-0.087,0.025-0.175,0.038-0.238c-0.012,0.075-0.038,0.163-0.05,0.25
					c0,0.013,0,0.013,0,0.025c-0.526,1.277-4.537,13.469-5.138,15.948c0,0,1.86,1.505,6.701,3.644
					c3.706,1.637,7.627,2.223,7.627,2.223c2.228-5.734,5.436-14.051,5.448-18.958C281.079,267.046,275.816,264.552,272.182,264.434z
					"/>
			</g>
			<path id="XMLID_2113_" style="fill:#FFDBB3;" d="M259.356,298.294c-0.626,1.217,0.286,13.053,1.864,22.279
				c1.577,9.226,1.359,10.742,1.359,10.742l5.405,0.359c0,0,0.18-8.207,0.676-13.071c0.508-4.984,1.348-17.303,1.348-17.303"/>
			<path id="XMLID_2112_" style="fill:#CD6158;" d="M266.417,269.233c0.013-0.088,0.038-0.175,0.05-0.25
				c-0.012,0.063-0.025,0.15-0.037,0.238L266.417,269.233z"/>
			<polygon id="XMLID_2108_" style="fill:#D4D4D4;" points="294.627,258.162 295.005,260.717 292.995,260.54 			"/>
			<polygon id="XMLID_2104_" style="fill:#D4D4D4;" points="295.68,258.002 295.68,260.894 296.948,259.737 			"/>
			<path id="XMLID_2102_" style="fill:#F5F7FF;" d="M294.069,259.44c0,0,1.066,0.153,2.177-0.763l0.934,1.895l-0.306,2.416
				l-1.649,0.658l-1.7-2.065"/>
			<path id="XMLID_2099_" style="fill:#2662EA;" d="M283.567,254.917l1.265-2.334c0,0,4.012,4.077,9.796,5.579l-1.027,3.587
				C293.6,261.75,286.827,260.083,283.567,254.917z"/>
			<path id="XMLID_2096_" style="fill:#2662EA;" d="M296.346,255.258c0,0,0.027,1.908-0.666,2.744l1.5,2.892
				C297.18,260.894,298.723,257.501,296.346,255.258z"/>
			<g id="XMLID_2009_">
				<path id="XMLID_2071_" style="fill:#FFB4B1;" d="M338.328,323.993c0,0-0.794-0.884-0.961-1.448
					c-0.167-0.564-0.266-1.4-0.956-2.256c-0.689-0.857-2.658-4.252-3.055-4.022c-0.397,0.23-0.794,1.212-0.48,2.528
					c0.313,1.316,0.856,2.173,0.878,2.507c0.021,0.334-2.254,0.387-3.636-0.067c-0.762-0.251-2.993-2.084-3.561-2.689
					c-0.523-0.006,0.208,4.006,0.521,5.228c0.257,1.002,3.445,4.213,3.445,4.213"/>
				<g id="XMLID_2010_">
					<path id="XMLID_2068_" style="fill:#101049;" d="M392.208,446.36c0,0-0.268,1.137,0.103,2.292
						c0.371,1.155,1.017,1.959,1.774,2.798c0.756,0.839,1.994,1.856,2.86,2.365c0.866,0.509,2.208,1.503,2.392,1.677
						c0.696,0.661,1.705,2.227,1.705,2.227v0.473c0,0,0.983,1.215,2.379,1.865c1.037,0.483,2.49,0.814,4.386,0.247
						c1.664-0.497,1.99-2.203,2.045-2.547c0.055-0.344,0-1.622,0-1.622"/>
					<path id="XMLID_2065_" style="fill:#1B115E;" d="M402.885,448.104c0,0-3.344-1.068-5.232-2.421
						c-2.601-1.865-4.501-1.389-5.149-0.282c-0.66,1.127-0.921,4.851,4.62,8.084c2.179,1.272,3.147,2.338,3.822,3.382
						c0.517,0.8,1.5,1.792,2.606,2.344c0.937,0.468,1.96,0.571,2.887,0.495c3.794-0.309,4.587-4.149,2.737-7.057
						C407.325,449.741,402.885,448.104,402.885,448.104z"/>
					<path id="XMLID_2061_" style="fill:#101049;" d="M361.443,466.3v0.139c0,0.6,0.184,1.201,0.574,1.663
						c1.742,2.039,5.853,2.897,6.705,3.062c0.046,0.013,0.099,0.02,0.152,0.026c2.323,0.363,4.93,0.501,6.058,0.62
						c1.419,0.152,2.264,0.396,2.264,0.396v0.257c0.442,0.112,1.92,0.462,3.201,0.535h0.013c1.228,0.039,2.713-0.139,3.465-0.772
						c0.231-0.211,0.789-0.834,0.95-1.617c0-0.053,0-0.073,0-0.073l-0.014-0.614v-0.284l-3.029-0.211c-0.013,0-0.013,0-0.013,0
						l-1.498-0.105l-1.386-0.086l-1.287-0.086L361.443,466.3z"/>
					<path id="XMLID_2058_" style="fill:#1B115E;" d="M374.596,463.093c0,0-2.925,1.091-5.041,1.091
						c-2.116,0-6.241-0.053-7.299,0.688c-0.529,0.37-0.828,0.818-0.826,1.322c0.012,2.834,6.697,4.549,10.717,4.866
						c4.019,0.317,4.231,0.264,6.135,0.582c1.904,0.318,3.884,0.467,5.084-0.126c2.073-1.026,2.215-4.158,0.945-6.22
						C383.042,463.233,374.596,463.093,374.596,463.093z"/>
					<path id="XMLID_2055_" style="fill:#FFB4B1;" d="M383.32,460.495c0,0,0.152,3.162,0.193,3.726
						c0.041,0.564,0.34,1.07,0.254,1.574c-0.137,0.804-2.035,1.608-4.633,1.32c-2.598-0.289-4.722-1.733-5.197-2.527
						c-0.475-0.793,0.249-1.038,0.371-1.371c0.193-0.525-0.003-5.229,0.35-3.63"/>
					<path id="XMLID_2052_" style="fill:#FFB4B1;" d="M408.637,449.798l0.145,2.858c0,0,0.383,0.658,0.245,1.234
						c-0.186,0.775-2.38,2.265-5.386,0.682c-3.368-1.774-2.996-4.414-3.018-4.558c-0.179-1.196,0.495-0.07,0.495-1.018"/>
					<path id="XMLID_2048_" style="fill:#2034A9;" d="M363.491,400.925c1.074,9.557,4.489,25.737,5.66,33.874
						c1.198,8.317,3.472,26.85,3.472,26.85s1.212,1.914,5.604,2.506c4.324,0.578,6.155-2.038,6.155-2.038s1.442-26.042,1.14-30.779
						c-0.303-4.751-1.693-13.476-1.486-18.13c0.138-3.346,0.097-11.305,1.749-18.328c0.234,0.743,0.482,1.418,0.73,1.996
						c2.506,5.66,7.243,17.819,8.565,22.431c1.267,4.489,4.533,30.912,4.533,30.912c0.193,0.399,0.647,0.881,1.335,1.363
						c0.84,0.578,2.024,1.157,3.415,1.542c3.938,1.102,5.315-1.157,5.315-1.157c0.468-2.754-0.226-33.026-1.214-38.251
						c-1.106-5.852-1.996-13.143-2.299-18.086c-0.303-4.957-1.832-16.063-1.226-22.522c0.234-2.437-0.041-4.627-0.482-6.389
						c-0.702-2.933-1.845-4.737-1.845-4.737s-37.854,2.066-39.121,7.821c-0.358,1.639-0.62,3.525-0.785,5.563
						C362.032,383.203,362.638,393.337,363.491,400.925z"/>
					<path id="XMLID_2044_" style="fill:#FFB4B1;" d="M375.836,293.84c0.936,0.606,1.873,0.909,2.658,1.129
						c0,0,0.055,0.014,0.165,0.041c0.069,0.013,0.138,0.041,0.207,0.069c0.179,0.055,0.427,0.138,0.716,0.262
						c0.275,0.138,0.468,0.289,0.551,0.509c0.344,0.895,0,6.211,0,6.211l1.68-0.579l10.204-3.511c0,0-0.138-2.74,0-5.26
						c0.138-2.52,0.344-15.973-3.002-18.287c-3.346-2.327-12.971-0.895-14.059,0.399c0,0-0.317,2.052-0.978,5.88
						C373.316,284.518,373.922,292.587,375.836,293.84z"/>
					<path id="XMLID_2041_" style="fill:#FC9D9D;" d="M381.22,296.305c-0.496-0.441-1.115-0.758-1.639-0.964
						c0.275,0.138,0.468,0.289,0.551,0.509c0.344,0.895,0,6.211,0,6.211l1.68-0.579C381.936,299.789,382.074,297.049,381.22,296.305
						z"/>
					<path id="XMLID_2040_" style="fill:#1B115E;" d="M381.809,268.994c0,0,4.544-0.177,7.542,0.86
						c6.121,2.118,7.526,7.575,7.257,11.391c-0.273,3.868-2.412,6.598-2.958,7.872c-0.546,1.274-0.592,3.549-1.002,4.278
						c-0.409,0.728-7.298,1.867-8.026,1.412c-0.728-0.455-2.531-3.005-2.667-4.097c-0.137-1.092,0.046-3.777-0.228-4.733
						c-0.273-0.956-1.502-2.184-2.184-2.048c-0.683,0.137-1.092,1.32-1.365,2.503c-0.273,1.183-0.865,1.183-1.138,0.91
						c-0.273-0.273-0.137-3.231-0.319-4.141c-0.182-0.91-0.546-1.138-0.455-3.822c0.091-2.685-0.717-1.964-1.991-3.511
						C367.316,269.483,381.809,268.994,381.809,268.994z"/>
					<path id="XMLID_2037_" style="fill:#FFB4B1;" d="M368.991,336.06v0.01c-0.17,0.381-0.351,0.732-0.531,1.073
						c-0.842,1.605-3.008,5.205-3.199,5.536c-0.02,0.01-0.02,0.01-0.02,0.01s-0.642,0.812-1.474,1.745
						c-3.129,2.888-7.371,2.166-9.327,0.01v0.01c0,0-16.426-15.083-17.961-15.233c-1.544-0.151-1.795,0.1-3.48-0.151
						c-1.685-0.241-2.477-1.083-2.477-1.083s3.168-4.433,3.66-7.14c1.253,0.802,3.581,2.755,5.125,3.66
						c1.59,0.933,11.402,6.168,16.577,9.136c0.411-0.953,0.813-1.885,1.174-2.778c0.01,0.03,1.905,3.701,5.857,5.175
						C366.634,337.433,368.75,336.2,368.991,336.06z"/>
					<path id="XMLID_2034_" style="fill:#E8CAAF;" d="M356.715,331.69c0.922,0.971,2.669,2.62,4.838,3.737
						c-3.009-1.699-4.482-4.53-4.497-4.562C356.941,331.139,356.828,331.414,356.715,331.69z"/>
					<path id="XMLID_2031_" style="fill:#122784;" d="M385.781,394.875c0.238,0.752,0.489,1.425,0.739,2.006
						c2.495,5.656,7.24,17.812,8.553,22.425c1.28,4.494,4.541,30.918,4.541,30.918c0.185,0.389,0.647,0.878,1.333,1.36
						c-0.541-6.349-2.647-26.919-3.452-30.397c-0.99-4.289-1.405-5.939-2.673-8.823c-1.26-2.891-7.312-16.915-3.847-23.758
						c2.263-4.481,3.214-8.619,3.59-10.942c-1.234,5.643-6.56,10.249-6.56,10.249L385.781,394.875z"/>
					<path id="XMLID_1916_" style="fill:#6786F9;" d="M403.572,370.309c-2.299,1.881-17.777,12.391-26.591,12.826
						c-0.049,0-0.099,0-0.138,0.01c-0.603,0.03-1.176,0.03-1.729,0.01c-5.939-0.267-8.271-4.15-9.19-7.362
						c0,0-0.662-2.935-1.008-3.063c-0.277,0-2.243,6.196-2.461,7.134c-0.454,2.026-0.306-5.237-0.03-9.684v-0.02
						c0.148-3.735,0.534-9.16,1.492-13.715c1.739-8.172,1.324-13.735,1.324-13.735v-0.02c0,0,0,0,0.02-0.02
						c0.188-0.316,2.362-3.923,3.202-5.534c0.178-0.336,0.356-0.692,0.534-1.067v-0.01l-0.04,0.01c-0.01,0.02-0.03,0.02-0.039,0.039
						c-0.02,0-0.049,0.01-0.089,0.03c-0.059,0.03-0.128,0.059-0.227,0.109c-0.079,0.04-0.178,0.089-0.286,0.119
						c-0.81,0.287-2.312,0.583-4.447-0.02c-0.306-0.079-0.632-0.178-0.959-0.306c-0.237-0.099-0.484-0.198-0.731-0.286
						c-0.207-0.099-0.415-0.198-0.622-0.326c-2.174-1.117-3.923-2.767-4.842-3.735c-0.464-0.504-0.731-0.81-0.741-0.83
						c2.154-6.176,5.01-11.63,6.631-14.634c2.539-4.644,7.698-7.984,14.16-11.008c0.158-0.079,0.336-0.158,0.494-0.237v-1.423
						c7.253-4.585,16.986-6.749,16.986-6.749l1.334,1.443c5.573-2.124,8.913,0.593,10.662,2.312
						c5.662,5.514,3.251,18.469-2.144,27.826c-4.348,7.55-4.269,12.454-2.549,19.121
						C404.622,359.44,406.289,368.086,403.572,370.309z"/>
					<path id="XMLID_2025_" style="fill:#5FA0C5;" d="M377.265,304.301v0.689c0,0,7.656-3.291,11.842-4.654
						C388.184,300.584,381.203,302.443,377.265,304.301z"/>
					<path id="XMLID_2011_" style="fill:#3B66E0;" d="M364.626,352.543c0.295-1.526,1.536-5.005,3.517-9.486
						c2.578-5.83,5.158-10.672,7.241-16.577l-4.75,8.513l-1.641,1.08c0,0-0.016,0.016-0.032,0.049
						c-0.161,0.356-0.323,0.696-0.502,1.019c-0.841,1.602-3.009,5.209-3.203,5.533l-0.016,0.016c0,0,0,0,0,0.016
						C365.241,342.707,365.532,346.557,364.626,352.543z"/>
				</g>
			</g>
			<path id="XMLID_2007_" style="fill:#F5F7FF;" d="M295.225,263.646L294,298.061c0,0,3.732,10.432,4.723,10.474
				c0.991,0.043,3.727-13.39,3.71-17.707c-0.017-4.318-5.559-27.84-5.559-27.84"/>
			<path id="XMLID_1821_" style="fill:#FFDBB3;" d="M329.783,312.24c0,0,2.483,2.987,3.132,3.585
				c0.648,0.599,1.515,2.12,1.926,3.073c0.411,0.954,1.702,4.414,1.496,4.676c-0.206,0.262-1.534,0.411-2.618-1.103
				c-1.085-1.515-1.332-1.348-1.332-1.348s-1.268,0.004-3.054-2.413c-1.786-2.417-2.267-4.624-2.267-4.624"/>
			<path id="XMLID_1805_" style="fill:#FFDBB3;" d="M313.345,287.083c3.008,3.955,6.843,10.426,10.328,15.774
				c3.628,5.569,6.758,10.156,6.758,10.156l-4.578,3.763c0,0-10.318-9.443-13.394-12.748c-1.471-1.58-5.524-6.161-5.524-6.161"/>
			<path id="XMLID_1858_" style="fill:#FFDBB3;" d="M267.986,340.917c-0.223,0.029-0.468,0.036-0.728,0.014
				c-1.196-0.108-2.746-0.742-4.093-1.369c-1.535-0.714-1.924-1.34-1.946-1.614v-0.051c0-0.029,0.014-0.086,0.022-0.151
				c0.072-0.382,0.245-1.247,0.317-1.593c0.007-0.036,0.007-0.065,0.014-0.087c0.007-0.043,0.014-0.072,0.014-0.072h0.007
				l5.311,2.053h0.007l2.111,1.29C269.024,339.339,269.218,340.744,267.986,340.917z"/>
		</g>
		<g>
			<g>
				<path style="fill:#91A3F8;" d="M507.022,138.997v34.278c0,0.921,0.443,1.791,1.211,2.319c0.034,0.017,0.068,0.051,0.102,0.068
					l11.204,6.907l23.142,14.257c0.409,0.256,0.87,0.222,1.211-0.017l4.536-2.797c0.409-0.239,0.648-0.682,0.648-1.143v-33.136
					c0-1.296-0.665-2.507-1.773-3.172l-34.006-20.976c-0.443-0.273-0.989-0.273-1.432-0.017l-4.315,2.626
					c-0.051,0.017-0.102,0.051-0.154,0.085C507.176,138.434,507.022,138.69,507.022,138.997z"/>
				<path style="fill:#CAD2FB;" d="M507.022,138.997v34.278c0,0.921,0.443,1.791,1.211,2.319c0.034,0.017,0.068,0.051,0.102,0.068
					l11.204,6.907l23.142,14.257c0.409,0.256,0.87,0.222,1.211-0.017c0.29-0.188,0.511-0.529,0.511-0.938v-33.408
					c0-1.211-0.631-2.336-1.654-2.984l-34.432-21.215c-0.256-0.153-0.529-0.171-0.767-0.068c-0.051,0.017-0.102,0.051-0.154,0.085
					C507.176,138.434,507.022,138.69,507.022,138.997z"/>
			</g>
			<g>
				<g id="XMLID_2409_">
					<path id="XMLID_2410_" style="fill:#FFFFFF;" d="M514.843,158.495c1.687,0.975,3.053,3.34,3.047,5.278
						c-0.005,1.939-1.38,2.716-3.067,1.742c-1.687-0.974-3.053-3.333-3.047-5.272C511.781,158.305,513.155,157.521,514.843,158.495z
						"/>
				</g>
				<g id="XMLID_2407_">
					<path id="XMLID_2408_" style="fill:#FFFFFF;" d="M524.968,164.76c1.688,0.974,3.053,3.339,3.048,5.279
						c-0.006,1.939-1.38,2.716-3.068,1.741c-1.687-0.974-3.053-3.333-3.047-5.272C521.906,164.569,523.28,163.786,524.968,164.76z"
						/>
				</g>
				<g id="XMLID_2405_">
					<path id="XMLID_2406_" style="fill:#FFFFFF;" d="M535.092,171.003c1.687,0.974,3.053,3.339,3.048,5.279
						c-0.006,1.939-1.38,2.716-3.067,1.742c-1.687-0.974-3.053-3.333-3.048-5.272C532.031,170.812,533.405,170.028,535.092,171.003z
						"/>
				</g>
			</g>
		</g>
		<g id="XMLID_2766_">
			<g id="XMLID_2816_">
				<g id="XMLID_2817_">
					<path id="XMLID_2_" style="fill:#5A67DB;" d="M195.934,354.366c-6.031,3.482-15.81,3.482-21.841,0
						c-6.031-3.482-6.031-8.243,0-11.726c6.031-3.482,15.809-3.482,21.841,0C201.964,346.122,201.964,350.884,195.934,354.366z"/>
					<path id="XMLID_2829_" style="fill:#274672;" d="M208.81,312.473c-3.375-6.768-9.953-12.68-17.481-13.411l-5.841-0.567
						l-4.701,0.224c-6.307,0.3-12.188,3.266-16.182,8.157l-3.366,5.772l7.398,27.1l-0.184-1.423
						c0.219,2.272,1.813,4.508,4.819,6.244c6.485,3.743,16.998,3.743,23.482,0c3.007-1.736,4.601-3.972,4.819-6.244h0
						C201.573,338.327,208.865,312.584,208.81,312.473z"/>
					<path id="XMLID_2826_" style="fill:#253B58;" d="M199.632,321.202c-8.074,4.661-21.163,4.661-29.236,0
						c-8.074-4.661-8.074-11.035,0-15.696c8.073-4.661,21.163-4.661,29.236,0C207.705,310.167,207.705,316.541,199.632,321.202z"/>
					<path id="XMLID_2818_" style="fill:#7EB9F5;" d="M201.909,301.472c-9.331-5.387-24.46-5.387-33.792,0
						c-9.331,5.387-9.331,14.122,0,19.509c9.332,5.388,24.46,5.388,33.792,0C211.24,315.594,211.24,306.859,201.909,301.472z
						 M170.257,319.747c-8.15-4.706-8.15-12.334,0-17.04c8.15-4.705,21.364-4.705,29.513,0c8.15,4.706,8.15,12.334,0,17.04
						C191.62,324.452,178.406,324.452,170.257,319.747z"/>
				</g>
			</g>
			<g id="XMLID_2769_">
				<path id="XMLID_2813_" style="fill:#ADD4F6;" d="M206.88,272.623c0,0,15.899,0.81,18.913,12.112c0,0,4.766-7.37-1.39-14.768
					C214.961,260.813,206.88,272.623,206.88,272.623z"/>
				<path id="XMLID_2806_" style="fill:#ADD4F6;" d="M142.005,263.589c0,0-4.634,6.152-2.713,12.481c0,0,9.119-18.46,21.776-11.001
					C161.068,265.069,151.499,256.97,142.005,263.589z"/>
				<path id="XMLID_2802_" style="fill:#D8EAFD;" d="M184.182,313.599c0,0-4.705-30.37,10.943-44.536
					c8.009-7.25,15.669-8.894,20.881-4.812c6.471,2.237,8.396,5.716,8.396,5.716s-3.223-3.223-10.628-0.791
					c-8.154,2.678-22.718,19.053-27.454,44.423C185.776,313.599,184.686,313.599,184.182,313.599z"/>
				<path id="XMLID_2799_" style="fill:#E8F2FF;" d="M184.182,313.599c0,0-17.162-63.976-42.177-50.01c0,0,3.127-4.095,9.248-5.168
					c1.809-1.582,5.518-2.354,7.404-1.716c12.974,4.394,31.27,20.66,27.664,56.893H184.182z"/>
				<path id="XMLID_2796_" style="fill:#ADD4F6;" d="M183.221,304.065c0,0,2.715,4.17,3.1,9.534h-2.138
					c0,0-4.315-7.521-11.548-8.594C179.477,298.675,183.221,304.065,183.221,304.065z"/>
				<path id="XMLID_2773_" style="fill:#D8EAFD;" d="M181.188,301.374c0.752,0.764,1.447,1.654,2.033,2.691
					c0,0-2.135-2.604-7.083-0.417c-7.42,3.28-18.77,13.365-19.567,27.427c0,0-4.274-20.455,6.022-29.837
					C167.875,296.424,176.173,296.282,181.188,301.374z"/>
				<path id="XMLID_2770_" style="fill:#E8F2FF;" d="M182.426,310.064c0,0-0.674-3.746,5.73-3.444
					c1.797-0.388,4.634-1.152,5.915,1.26c5.539,11.641-2.034,29.009-2.034,29.009s-1.919-7.738-4.445-14.693
					C185.955,317.691,182.421,312.777,182.426,310.064z"/>
			</g>
		</g>
		<g>
			<g>
				<path style="fill:#84A7DC;" d="M560.176,233.189v34.278c0,0.921,0.443,1.791,1.211,2.319c0.034,0.017,0.068,0.051,0.102,0.068
					l11.204,6.907l23.142,14.257c0.409,0.256,0.87,0.222,1.211-0.017l4.536-2.797c0.409-0.239,0.648-0.682,0.648-1.143v-33.136
					c0-1.296-0.665-2.507-1.773-3.172l-34.006-20.976c-0.443-0.273-0.989-0.273-1.432-0.017l-4.315,2.626
					c-0.051,0.017-0.102,0.051-0.154,0.085C560.33,232.627,560.176,232.882,560.176,233.189z"/>
				<path style="fill:#B6D1FC;" d="M560.176,233.189v34.278c0,0.921,0.443,1.791,1.211,2.319c0.034,0.017,0.068,0.051,0.102,0.068
					l11.204,6.907l23.142,14.257c0.409,0.256,0.87,0.222,1.211-0.017c0.29-0.188,0.511-0.529,0.511-0.938v-33.409
					c0-1.211-0.631-2.336-1.654-2.984l-34.432-21.215c-0.256-0.154-0.529-0.171-0.767-0.068c-0.051,0.017-0.102,0.051-0.154,0.085
					C560.33,232.627,560.176,232.882,560.176,233.189z"/>
			</g>
			<g>
				<path style="fill:#FFFFFF;" d="M573.607,252.621c0,2.712,2.198,6.23,4.91,7.86c2.712,1.629,4.91,0.752,4.91-1.96
					c0-2.711-2.198-6.23-4.91-7.86C575.805,249.032,573.607,249.91,573.607,252.621z"/>
				<path style="fill:#FFFFFF;" d="M567.401,266.099l22.221,13.352c-0.025-6.129-4.971-14.048-11.11-17.737
					c-3.057-1.837-5.841-2.267-7.855-1.463C568.644,261.054,567.401,263.042,567.401,266.099z"/>
			</g>
		</g>
		<g>
			<path style="fill:none;stroke:#FFFFFF;stroke-width:1.187;stroke-miterlimit:10;" d="M490.371,218.36v42.708
				c0,1.051,0.506,2.043,1.381,2.646c0.039,0.02,0.078,0.058,0.117,0.078l39.186,24.146c0.467,0.292,0.992,0.253,1.382-0.019
				c0.331-0.214,0.583-0.603,0.583-1.07v-41.715c0-1.381-0.72-2.666-1.887-3.405l-39.283-24.204
				c-0.292-0.175-0.603-0.195-0.875-0.078c-0.059,0.02-0.117,0.058-0.175,0.097C490.546,217.718,490.371,218.01,490.371,218.36z"/>
			<g>
				<path style="fill:#FFFFFF;" d="M497.384,232.934v3.696l14.296,16.777l14.327,1.093v-4.367c0-0.433-0.223-0.835-0.59-1.065
					l-26.86-16.784C498.046,231.965,497.384,232.332,497.384,232.934z"/>
				<path style="fill:#FFFFFF;" d="M511.68,255.693l-14.296-16.777v16.464c0,0.433,0.223,0.835,0.59,1.065l26.86,16.784
					c0.51,0.319,1.172-0.048,1.172-0.65v-15.793L511.68,255.693z"/>
			</g>
		</g>
		<g>
			<path style="fill:#00CBF1;" d="M149.155,90.696v34.278c0,0.921,0.443,1.775,1.211,2.277c0.034,0.016,0.068,0.049,0.102,0.065
				l11.204,6.516l23.142,13.449c0.409,0.242,0.87,0.191,1.211-0.059l4.536-2.955c0.409-0.253,0.648-0.705,0.648-1.165v-33.136
				c0-1.296-0.665-2.484-1.774-3.11l-34.005-19.789c-0.443-0.257-0.989-0.238-1.432,0.033l-4.315,2.777
				c-0.051,0.019-0.102,0.055-0.153,0.091C149.308,90.128,149.155,90.389,149.155,90.696z"/>
			<path style="fill:#EBFFFF;" d="M149.155,90.696v34.278c0,0.921,0.443,1.775,1.211,2.277c0.034,0.016,0.068,0.049,0.102,0.065
				l11.204,6.516l23.142,13.449c0.409,0.242,0.87,0.191,1.211-0.059c0.29-0.198,0.512-0.547,0.512-0.956v-33.409
				c0-1.211-0.631-2.314-1.654-2.927l-34.432-20.013c-0.256-0.145-0.529-0.152-0.768-0.041c-0.051,0.019-0.102,0.055-0.153,0.091
				C149.308,90.128,149.155,90.389,149.155,90.696z"/>
			<path style="fill:#8088F9;" d="M175.131,121.308l-0.225-0.13v-2.431c0-3.995-3.244-9.112-7.239-11.418
				c-3.987-2.302-7.239-0.935-7.239,3.06v2.431l-0.046-0.027c-1.123-0.648-2.028-0.265-2.028,0.857v9.167
				c0,1.123,0.906,2.551,2.028,3.2l14.749,8.515c1.123,0.648,2.029,0.265,2.029-0.857v-9.166
				C177.16,123.384,176.254,121.956,175.131,121.308z M168.945,124.495c-0.178-0.01-0.279,0.125-0.225,0.343l0.41,1.739
				c0.24,1.044-0.441,1.534-1.37,0.997c-0.937-0.541-1.618-1.817-1.37-2.579l0.41-1.281c0.054-0.155-0.047-0.399-0.217-0.598
				c-0.828-0.966-1.339-2.244-1.115-3.191c0.186-0.783,0.929-1.09,1.819-0.754c1.517,0.574,2.849,2.497,2.849,3.96
				C170.137,124.014,169.658,124.496,168.945,124.495z M173.072,120.118l-10.808-6.24v-2.431c0-2.981,2.423-4.013,5.404-2.292
				s5.404,5.551,5.404,8.532V120.118z"/>
		</g>
		<g>
			<path style="fill:#1B115E;" d="M271.197,217.582c0.021-0.934-0.674-2.148-1.614-2.804c-11.05-7.709-18.72-17.434-21.951-21.953
				c-0.999-1.398-2.431-2.225-3.431-1.981c-3.231,0.788-10.901,1.657-21.951-3.394c-0.515-0.235-0.95-0.211-1.241,0.01l-0.002-0.008
				l-6.979,4.054l6.657,3.352l0.436-0.026c1.317,11.007,6.084,31.59,23.078,51.859c1.053,1.256,2.382,2.023,3.435,1.983
				c1.664-0.063,3.198-0.279,4.635-0.601l-1.073,1.811l6.445-3.769c0.393-0.21,0.769-0.436,1.14-0.667l0.24-0.141l-0.004,0.001
				C269.805,238.375,271.079,222.766,271.197,217.582z"/>
			<path style="fill:#E1F3FF;" d="M262.551,218.87c-11.05-7.709-18.72-17.434-21.951-21.953c-0.999-1.398-2.431-2.225-3.431-1.981
				c-3.231,0.788-10.901,1.657-21.951-3.394c-0.94-0.429-1.635-0.018-1.614,0.94c0.151,6.799,2.187,32.807,23.562,58.301
				c1.053,1.256,2.382,2.023,3.435,1.983c21.376-0.812,23.412-24.469,23.562-31.094C264.186,220.74,263.491,219.525,262.551,218.87z
				"/>
			<path style="fill:#4A96D3;" d="M238.885,247.554c-0.184-0.106-0.369-0.265-0.529-0.464
				c-15.827-19.549-19.484-39.118-20.256-49.043c-0.04-0.514,0.297-0.761,0.781-0.573c8.868,3.444,15.461,3.383,19.429,2.726
				c0.342-0.055,0.807,0.213,1.149,0.663c3.969,5.24,10.562,12.914,19.429,19.709c0.484,0.371,0.821,1.007,0.782,1.475
				c-0.772,9.033-4.429,24.377-20.256,25.653C239.254,247.714,239.07,247.661,238.885,247.554z M220.096,199.898
				c0.881,9.687,4.547,27.617,18.79,45.535c14.243-1.473,17.909-15.169,18.79-23.838c-8.389-6.583-14.747-13.853-18.79-19.096
				C234.842,203.072,228.484,203.001,220.096,199.898z"/>
		</g>
		<g>
			<g>
				<g>
					<path style="fill:none;stroke:#FFFFFF;stroke-width:1.187;stroke-miterlimit:10;" d="M210.813,49.188v50.853
						c0,1.366,0.658,2.656,1.796,3.441c0.051,0.025,0.101,0.076,0.152,0.101l16.622,10.246l34.332,21.151
						c0.607,0.379,1.29,0.329,1.796-0.025c0.43-0.278,0.759-0.784,0.759-1.391V84.001c0-1.796-0.936-3.466-2.454-4.428L212.736,48.1
						c-0.38-0.228-0.784-0.253-1.138-0.101c-0.076,0.025-0.152,0.076-0.228,0.127C211.041,48.353,210.813,48.732,210.813,49.188z"/>
				</g>
			</g>
			<g>
				<path style="fill:#FFFFFF;" d="M259.232,121.137l-31.176-18c-0.506-0.292-0.916-0.939-0.916-1.444v-1.265
					c0-1.855,1.504-2.491,3.359-1.42l26.289,15.178c1.855,1.071,3.359,3.443,3.359,5.299v1.265
					C260.147,121.255,259.737,121.429,259.232,121.137z"/>
				<path style="fill:#FFFFFF;" d="M254.92,112.614l-22.553-13.021c-0.546-0.315-0.989-1.014-0.989-1.56l0,0
					c0-0.546,0.443-0.733,0.989-0.418l22.553,13.021c0.546,0.315,0.989,1.014,0.989,1.56l0,0
					C255.909,112.742,255.466,112.929,254.92,112.614z"/>
				<g>
					<polygon style="fill:#FFFFFF;" points="250.684,95.357 241.484,99.278 227.26,76.892 236.46,72.971 					"/>
					<path style="fill:#FFFFFF;" d="M252.712,98.806l-8.943,3.811c-0.517,0.22-1.356-0.263-1.874-1.079l0,0
						c-0.518-0.816-0.52-1.656-0.003-1.876l8.943-3.811c0.517-0.22,1.356,0.263,1.874,1.079l0,0
						C253.227,97.745,253.228,98.586,252.712,98.806z"/>
					<path style="fill:#FFFFFF;" d="M236.053,72.587l-8.943,3.811c-0.517,0.22-1.356-0.263-1.874-1.079l0,0
						c-0.518-0.816-0.52-1.656-0.003-1.876l8.943-3.811c0.517-0.22,1.356,0.263,1.874,1.079l0,0
						C236.568,71.527,236.569,72.367,236.053,72.587z"/>
					<polygon style="fill:#FFFFFF;" points="235.855,89.31 225.294,93.811 223.438,90.888 233.998,86.387 					"/>
					<path style="fill:#FFFFFF;" d="M225.854,94.203l-7.122,3.035c-0.684,0.292-1.796-0.348-2.483-1.429l0,0
						c-0.687-1.081-0.689-2.194-0.004-2.486l7.122-3.035c0.685-0.292,1.796,0.348,2.483,1.429l0,0
						C226.537,92.798,226.539,93.911,225.854,94.203z"/>
				</g>
			</g>
		</g>
		<g>
			<g>
				<g>
					<path style="fill:#4A22BA;" d="M540.165,314.907c-12.262-7.079-23.261-7.922-30.657-3.522l0.001-0.004l-10.936,6.365
						l5.034-0.583c-1.868,2.939-3.09,6.608-3.539,10.947c-2.639,2.802-5.399,5.77-5.483,6.024c-0.163,0.49,0.49,13.063,0.49,13.063
						s6.695,21.227,7.185,22.044c0.49,0.816,16.982,20.447,16.982,20.447s14.206,9.435,15.676,9.421
						c1.47-0.014,9.961,3.606,13.553,3.769c2.242,0.102,2.766-1.391,2.844-2.529c3.96,1.143,7.674,1.558,11.034,1.273
						c-0.025,0.058-0.039,0.091-0.039,0.091l-2.223,3.505l10.197-5.9c0.24-0.132,0.477-0.269,0.71-0.411l0.049-0.029l0-0.001
						c5.872-3.612,9.413-10.586,9.413-20.417C580.456,356.244,562.381,327.734,540.165,314.907z M567.453,382.78
						c-0.074,0.842-0.501,4.448-0.936,7.379c-6.015,4.534-15.588,4.196-26.352-2.018c-18.165-10.488-32.943-33.798-32.943-51.963
						c0-10.785,5.209-17.368,13.243-18.742l9.535,5.608l15.409,13.008c0,0,9.458,6.176,9.444,7.68
						c-0.014,1.505,4.15,10.567,4.15,10.567l5.388,18.003C564.391,372.303,567.575,381.379,567.453,382.78z"/>
					<path style="fill:#1B115E;" d="M540.165,374.342c-10.556-6.095-19.144-19.641-19.144-30.197c0-3.608,1.004-6.406,2.747-8.284
						c0.923,0.218,1.522,0.365,1.597,0.395c0.408,0.163,13.961,7.593,14.451,8.083c0.49,0.49,10.697,11.813,10.697,11.813
						l8.001-4.627c-5.055-9.099-11.542-18.119-18.349-22.819c-7.568-5.226-15.116-5.192-19.975-2.416l-0.004-0.002l-10.805,6.268
						c0,0,2.297,0.521,5.148,1.173c-0.424,1.387-0.697,2.922-0.802,4.598c-1.357,0.752-3.564,2.028-4.281,2.745
						c-1.061,1.061-1.959,9.144-2.223,10.369c-0.264,1.225,2.55,8.409,2.958,9.634c0.408,1.225,4.082,6.532,4.654,6.94
						c0.572,0.408,4.735,7.103,5.878,8.491c1.143,1.388,3.674,3.266,5.715,4.327c2.041,1.061,9.389,4.966,9.389,4.966
						s9.879,0.423,10.695,0.423c0.276,0,0.487-0.618,0.645-1.435c5.255,1.603,9.983,1.304,13.522-0.979l-5.687-7.936
						C551.336,378.23,545.933,377.672,540.165,374.342z"/>
				</g>
				<g>
					<g>
						<g>
							<path style="fill:#FFFFFF;" d="M530,401.368c-22.217-12.827-40.291-41.337-40.291-63.553
								c0-22.217,18.075-29.856,40.291-17.029c22.216,12.827,40.291,41.337,40.291,63.553
								C570.291,406.555,552.217,414.195,530,401.368z M530,328.133c-18.165-10.488-32.943-4.241-32.943,13.923
								c0,18.165,14.778,41.475,32.943,51.963c18.165,10.488,32.943,4.242,32.943-13.923
								C562.943,361.931,548.165,338.621,530,328.133z"/>
						</g>
					</g>
					<g>
						<path style="fill:#FFFFFF;" d="M530,387.569c-14.608-8.434-26.492-27.179-26.492-41.787c0-14.608,11.884-19.631,26.492-11.197
							c7.981,4.608,15.458,12.469,20.513,21.568l-5.687,1.369c-3.654-6.577-9.058-12.259-14.826-15.589
							c-10.556-6.095-19.144-2.465-19.144,8.091c0,10.556,8.588,24.102,19.144,30.197c5.768,3.33,11.172,3.888,14.826,1.531
							l5.687,7.936C545.458,392.949,537.981,392.176,530,387.569z"/>
					</g>
				</g>
				<polygon style="fill:#4A22BA;" points="544.826,381.751 554.991,375.873 560.678,383.809 550.513,389.688 				"/>
			</g>
			<g>
				<path style="fill:#FFFFFF;" d="M494.103,400.259c-0.712-0.783-1.27-1.625-1.674-2.526c-0.404-0.901-0.606-1.776-0.606-2.624
					c0-0.848,0.202-1.489,0.606-1.924s0.961-0.633,1.674-0.594c0.712,0.039,1.512,0.315,2.4,0.828
					c0.816,0.471,1.544,1.035,2.185,1.693c0.639,0.656,1.167,1.378,1.584,2.162l-1.789,0.564c-0.52-0.956-1.132-1.638-1.836-2.044
					c-0.592-0.342-1.067-0.426-1.428-0.254c-0.36,0.172-0.541,0.578-0.541,1.218c0,0.64,0.18,1.254,0.541,1.842
					c0.36,0.588,0.835,1.052,1.428,1.394c0.704,0.407,1.315,0.433,1.836,0.076l1.789,2.629c-0.417,0.305-0.945,0.415-1.584,0.334
					c-0.641-0.082-1.369-0.358-2.185-0.83C495.615,401.691,494.815,401.042,494.103,400.259z"/>
				<path style="fill:#FFFFFF;" d="M502.876,405.318c-0.721-0.791-1.284-1.639-1.692-2.543c-0.408-0.902-0.613-1.775-0.613-2.615
					c0-0.84,0.205-1.476,0.613-1.908c0.408-0.432,0.972-0.629,1.692-0.589c0.72,0.039,1.531,0.32,2.435,0.842
					c0.904,0.522,1.716,1.179,2.436,1.971c0.721,0.792,1.285,1.64,1.692,2.543c0.409,0.903,0.612,1.775,0.612,2.615
					c0,0.84-0.203,1.477-0.612,1.909c-0.407,0.432-0.972,0.629-1.692,0.588c-0.72-0.039-1.531-0.32-2.436-0.842
					C504.407,406.767,503.596,406.11,502.876,405.318z M506.266,405.289c0.284-0.008,0.51-0.122,0.679-0.341
					c0.167-0.219,0.252-0.54,0.252-0.964c0-0.425-0.085-0.843-0.252-1.256c-0.169-0.413-0.395-0.787-0.679-1.124
					c-0.284-0.336-0.603-0.605-0.954-0.809c-0.352-0.203-0.67-0.301-0.954-0.293c-0.284,0.009-0.51,0.122-0.678,0.341
					c-0.168,0.22-0.252,0.54-0.252,0.965c0,0.424,0.084,0.843,0.252,1.255c0.168,0.414,0.393,0.788,0.678,1.124
					c0.284,0.336,0.603,0.605,0.954,0.809C505.663,405.199,505.981,405.297,506.266,405.289z"/>
				<path style="fill:#FFFFFF;" d="M517.155,405.918c0.576,0.589,1.02,1.213,1.332,1.873c0.313,0.66,0.469,1.311,0.469,1.95
					c0,0.641-0.156,1.11-0.469,1.41s-0.756,0.411-1.332,0.335c-0.576-0.077-1.252-0.339-2.028-0.787l-1.212-0.7v2.065l-2.831-1.635
					v-8.4l4.043,2.335C515.903,404.812,516.579,405.329,517.155,405.918z M515.812,408.653c0.192-0.062,0.288-0.247,0.288-0.56
					s-0.096-0.609-0.288-0.893c-0.192-0.283-0.48-0.535-0.863-0.757l-1.033-0.596v1.968l1.033,0.596
					C515.332,408.634,515.619,408.714,515.812,408.653z"/>
				<path style="fill:#FFFFFF;" d="M524.871,415.341v3.048l-2.832-1.635v-3.084l-3.168-7.146l2.988,1.726l1.716,3.895l1.727-1.906
					l2.736,1.579L524.871,415.341z"/>
				<path style="fill:#FFFFFF;" d="M531.999,420.392l-0.769-0.443v2.112l-2.831-1.635v-8.399l4.043,2.334
					c0.776,0.448,1.452,0.967,2.028,1.555c0.576,0.589,1.019,1.213,1.332,1.873c0.313,0.66,0.469,1.311,0.469,1.951
					c0,0.6-0.137,1.045-0.408,1.336c-0.271,0.291-0.664,0.42-1.176,0.389l1.764,3.611l-3.024-1.746L531.999,420.392z
					 M533.127,417.198c-0.192-0.282-0.479-0.535-0.863-0.757l-1.033-0.596v1.968l1.033,0.597c0.384,0.221,0.671,0.301,0.863,0.24
					c0.192-0.061,0.288-0.248,0.288-0.559C533.415,417.779,533.319,417.481,533.127,417.198z"/>
				<path style="fill:#FFFFFF;" d="M537.34,417.188l2.831,1.635v8.399l-2.831-1.635V417.188z"/>
				<path style="fill:#FFFFFF;" d="M547.095,426.792l2.46,1.42v3.553c-0.496,0.057-1.072-0.012-1.728-0.206
					c-0.656-0.195-1.3-0.475-1.933-0.84c-0.895-0.517-1.699-1.167-2.412-1.95c-0.712-0.783-1.269-1.625-1.673-2.526
					s-0.607-1.776-0.607-2.624c0-0.848,0.202-1.489,0.607-1.924c0.404-0.435,0.967-0.63,1.691-0.583
					c0.725,0.046,1.542,0.332,2.454,0.858c0.823,0.475,1.562,1.039,2.214,1.692c0.652,0.652,1.194,1.367,1.626,2.145l-1.812,0.55
					c-0.528-0.921-1.156-1.592-1.884-2.012c-0.624-0.36-1.121-0.459-1.488-0.295c-0.368,0.164-0.553,0.569-0.553,1.217
					c0,0.633,0.183,1.246,0.547,1.84c0.363,0.594,0.85,1.066,1.458,1.418c0.36,0.207,0.703,0.338,1.031,0.392V426.792z"/>
				<path style="fill:#FFFFFF;" d="M559.047,429.72v8.4l-2.832-1.635v-3.096l-2.616-1.511v3.096l-2.832-1.635v-8.399l2.832,1.635
					v2.976l2.616,1.511v-2.977L559.047,429.72z"/>
				<path style="fill:#FFFFFF;" d="M562.238,433.759l-2.459-1.42v-2.195l7.752,4.475v2.196l-2.46-1.421v6.205l-2.833-1.636V433.759z
					"/>
			</g>
		</g>
	</g>
</g>
</svg>
